<svg width="165" height="186" viewBox="0 0 165 186" fill="none" xmlns="http://www.w3.org/2000/svg">
<path d="M81.9553 118.6C80.8553 121.7 79.1553 124.6 77.7553 127.6C76.0553 131.2 74.1553 134.6 72.4553 138.2C70.2553 142.8 66.9553 146.5 63.3553 149.9C61.8553 150.9 60.3553 151.9 58.8553 152.9C58.4553 153.2 57.7553 153.8 57.2553 153.2C56.6553 152.5 57.4553 152.2 57.8553 151.8C58.5553 151.2 58.9553 150.4 59.1553 149.5C59.0553 149.2 58.5553 149 58.9553 148.6C60.3553 148.2 60.5553 148.4 60.3553 150.3C65.0553 146.7 68.9553 142.4 71.4553 137C73.7553 132.1 76.4553 127.4 78.7553 122.5C79.5553 120.9 79.9553 119 81.4553 117.8C81.8553 117.9 81.8553 118.3 81.9553 118.6Z" fill="#FDCF72"/>
<path d="M48.5553 153.6C45.8553 154.2 43.1553 154.4 40.4553 154.3C39.4553 154.3 39.0553 153.9 39.5553 152.9C40.0553 151.9 39.9553 151.6 38.7553 151.8C35.7553 152.3 32.8553 151.8 30.0553 151C26.0553 149.9 21.9553 148.8 18.4553 146.4C18.4553 145.7 18.9553 145.8 19.4553 145.7C20.0553 145.7 20.5553 146 21.1553 146.3C25.5553 148.4 30.2553 149.6 35.0553 150.4C36.4553 150.6 37.8553 150.5 39.2553 150.3C41.0553 150 41.4553 150.3 41.3553 152.1C41.3553 152.9 41.5553 153 42.2553 153C43.9553 153.1 45.5553 152.7 47.2553 152.8C47.6553 153 48.4553 152.7 48.5553 153.6Z" fill="#F5C668"/>
<path d="M35.8552 102.4C37.7552 101.9 39.5552 101.6 41.5552 101.9C42.4552 102 43.3552 102 44.2552 102.1C45.4552 102.2 46.6552 102.2 47.9552 102.2C47.9552 101.9 47.9552 101.7 47.8552 101.6C46.7552 100 47.2552 98.8 49.3552 98.8C50.8552 98.8 52.3552 99.1 53.7552 99.4C55.9552 99.8 58.1552 100.3 60.1552 101.3C60.2552 101.7 60.0552 102 59.6552 102.2C58.9552 102.4 58.3552 102.1 57.7552 101.9C55.4552 101 53.0552 100.7 50.6552 100.3C49.2552 100 49.0552 100.3 49.2552 101.7C49.3552 103 48.9552 103.7 47.7552 103.6C44.2552 103.4 40.7552 103.1 37.3552 103.4C37.1552 102.6 36.2552 102.9 35.8552 102.4Z" fill="#FED278"/>
<path d="M41.5552 85.5C36.6552 81.9 32.3552 77.7 29.5552 72.2C29.3552 71.8 29.0552 71.4 29.4552 71C29.8552 70.6 30.2552 70.8 30.6552 71C31.3552 71.3 31.9552 71.8 32.8552 71.5C32.3552 70.9 31.8552 70.2 31.4552 69.6C31.5552 69.4 31.7552 69.2 31.9552 69.1C33.3552 69.5 34.0552 70.7 34.9552 71.7C35.5552 72.3 34.9552 72.8 34.2552 72.9C33.2552 73 32.3552 72.9 31.3552 72.6C32.9552 75.9 35.5552 78.3 38.0552 80.7C39.5552 82.2 41.3552 83.5 42.4552 85.3C42.1552 85.7 41.8552 85.6 41.5552 85.5Z" fill="#F3C56A"/>
<path d="M100.555 97C97.2553 99.5 93.8553 102 90.8553 104.8C89.5553 106 88.1553 107.2 87.1553 108.7C86.8553 109 86.4553 108.9 86.1553 108.8C85.7553 108.5 85.1553 108.7 84.7553 108.5C84.5553 108.4 84.3553 108.3 84.2553 108.1C84.1553 108 84.2553 107.8 84.3553 107.7C86.6553 107.6 88.3553 106.5 89.8553 104.8C92.8553 101.4 96.5553 98.7 100.355 96.3C100.855 96.3 100.655 96.7 100.555 97Z" fill="#E3A94D"/>
<path d="M115.355 88.4C110.655 90.6 106.255 93.3 101.855 96C101.355 96.1 100.855 96.2 101.155 95.4C105.455 92.5 109.855 89.7 114.655 87.7C115.055 87.8 115.255 88.1 115.355 88.4Z" fill="#ECB95C"/>
<path d="M1.35529 132.3C1.25529 132.2 1.15529 132.2 1.15529 132.1C0.755295 131.5 -0.244711 131.1 0.0552887 130.3C0.255289 129.6 1.25529 129.9 1.85529 129.7C2.05529 130 1.95529 130.4 2.25529 130.6C5.45529 132.4 9.15529 133.3 12.5553 134.7C12.7553 134.9 13.1553 135.1 13.0553 135.4C12.8553 135.9 12.2553 135.9 11.8553 135.9C9.45529 135.5 7.15529 134.6 4.85529 133.7C4.35529 133.4 3.85528 133.2 3.45528 132.9C2.75528 132.4 2.05529 132.4 1.35529 132.3Z" fill="#F3C466"/>
<path d="M1.55518 130.7C1.65518 130.4 1.75518 130.1 1.85518 129.7C5.65518 128.6 9.35517 127.3 12.7552 125.3C13.7552 124.7 14.7552 124 15.6552 123.4C16.0552 123.1 16.2552 123.3 16.4552 123.7C16.4552 124.3 16.1552 124.6 15.7552 124.9C11.4552 127.7 6.75518 129.9 1.55518 130.7Z" fill="#EBB95E"/>
<path d="M115.355 88.4C114.955 88.3 114.655 88.2 114.655 87.7C115.155 87.4 115.655 87.1 116.055 86.8C117.055 85.5 118.755 85.7 120.055 85C120.455 84.9 120.855 84.7 121.255 84.6C121.155 83.8 121.755 83.5 122.455 83.4C123.055 83.3 123.655 83.3 124.255 83.1C124.855 83 125.455 83 125.855 83.5C125.955 83.7 125.855 84 125.755 84.2C125.455 84.6 125.055 84.8 124.655 84.9C124.555 85 124.355 85 124.255 85C123.855 85.1 123.455 85.2 123.155 85.3C122.955 85.4 122.755 85.4 122.655 85.6C120.155 86.6 117.755 87.5 115.355 88.4Z" fill="#DD9E40"/>
<path d="M77.5552 96.8C73.1552 97.6 68.6552 98.2 64.1552 97.3C63.8552 96.9 63.6552 96.5 64.4552 96.3C67.9552 96.2 71.5552 96.6 75.0552 95.9C75.6552 95.9 76.1552 95.9 76.7552 96.1C77.0552 96.2 77.3552 96.4 77.5552 96.8Z" fill="#FCD586"/>
<path d="M1.35522 132.3C2.05522 131.8 2.75522 132 3.35522 132.5C3.35522 133.1 3.95522 133.2 4.25522 133.5C6.25522 135.4 8.55522 136.9 10.4552 138.9C10.4552 139.2 10.9552 139.7 10.1552 139.7C6.85523 137.8 3.95522 135.2 1.35522 132.3Z" fill="#FBCF78"/>
<path d="M35.8554 102.4C36.2554 102.7 37.1554 101.8 37.1554 103C36.5554 103.9 35.4554 103.9 34.5554 104.1C33.1554 104.5 31.9554 105.1 30.7554 105.8C30.2554 106.1 29.8554 106.6 29.7554 107.2C29.7554 107.3 29.6554 107.5 29.5554 107.6C28.0554 107.2 27.8554 106.9 28.9554 105.8C30.8554 103.9 33.1554 102.8 35.8554 102.4Z" fill="#F3C569"/>
<path d="M53.7553 94C54.3553 93.7 55.0553 93.3 55.8553 92.9C53.5553 92 51.1553 91.8 49.1553 90.3C49.3553 90 49.6553 89.8 50.0553 89.7C52.3553 90.1 54.3553 91.1 56.6553 91.7C57.7553 92 57.8553 93 56.9553 93.8C56.4553 94.3 55.7553 94.5 55.1553 94.8C54.3553 95 53.9553 94.6 53.7553 94Z" fill="#FDDC98"/>
<path d="M25.8554 56.4C25.4554 55 25.5554 53.5 25.3554 52.1C25.1554 50.8 25.5554 50.3 27.1554 51.3C26.6554 50.3 26.3554 49.6 26.0554 49C26.1554 48.7 26.1554 48.4 26.4554 48.3C26.5554 48.3 26.7554 48.3 26.8554 48.4C27.1554 48.7 27.3554 49.1 27.6554 49.5C28.0554 50.3 28.5554 51.1 28.8554 51.9C28.9554 52.6 28.5554 53 27.8554 52.9C26.7554 52.7 26.7554 53.3 26.8554 54.1C26.9554 54.8 27.0554 55.6 26.7554 56.3C26.5554 56.5 26.2554 56.7 25.8554 56.4Z" fill="#FACD72"/>
<path d="M48.5553 153.6C48.1553 153.1 47.4553 153.4 46.9553 153.2C46.9553 152.7 47.3553 152.6 47.7553 152.6C51.0553 152.1 54.0553 150.5 57.0553 149.2C57.6553 149 58.1553 148.5 58.8553 148.8C58.7553 149.1 59.5553 149 59.1553 149.4C56.1553 150.4 53.6553 152.4 50.5553 153.2C49.8553 153.4 49.2553 153.5 48.5553 153.6Z" fill="#FED684"/>
<path d="M64.6554 103.1C67.4554 104.2 70.2554 105.2 73.0554 106.3C72.7554 106.8 72.1554 107 71.5554 107.1C69.0554 106.6 66.7554 105.6 64.5554 104.3C64.2554 103.9 64.0554 103.4 64.6554 103.1Z" fill="#F5CA75"/>
<path d="M53.7553 94C54.2553 94 54.4553 94.8 54.9553 94.7C55.6553 94.4 56.3553 94.6 56.9553 94.8C58.9553 95.3 61.0553 95.6 63.0553 96.1C63.5553 96.6 63.0553 96.9 62.8553 97.2C60.2553 96.7 57.6553 96.2 55.0553 95.6C54.5553 95.4 52.8553 95.7 53.7553 94Z" fill="#FED27A"/>
<path d="M19.4554 146.1C19.0554 146.1 18.6554 146.1 18.3554 146.5C16.2554 145.5 16.1554 145.3 17.0554 143.4C15.9554 142.9 14.8554 142.5 13.7554 142C13.7554 141.4 14.2554 141.4 14.6554 141.4C15.7554 141.6 16.7554 142.1 17.9554 142.2C18.4554 142.2 19.0554 142.7 18.7554 143.2C17.9554 144.5 19.0554 145.2 19.4554 146.1Z" fill="#FCD077"/>
<path d="M26.4552 48.3C26.4552 48.6 26.3552 48.8 26.0552 48.9C25.0552 47.3 23.9552 45.9 22.6552 44.6C22.2552 44 22.6552 43.7 23.1552 43.5C24.8552 43.9 25.5552 45.4 26.5552 46.6C26.8552 47.2 26.2552 47.7 26.4552 48.3Z" fill="#F5C76A"/>
<path d="M23.3554 43.7C22.9554 43.9 22.6554 44.2 22.6554 44.6C22.3554 44.4 22.0554 44.1 21.7554 43.9C21.9554 43.6 22.3554 43.4 22.3554 42.9C24.5554 41.9 26.9554 42.3 29.2554 42.2C29.3554 42.6 30.3554 42.7 29.6554 43.4C27.6554 43.9 25.4554 43.5 23.3554 43.7Z" fill="#F4C971"/>
<path d="M25.8552 56.4C26.1552 56.4 26.3552 56.3 26.5552 56C26.7552 56 26.9552 56.1 27.0552 56.3C27.4552 58.5 28.3552 60.6 28.7552 62.9C28.6552 63.5 28.2552 63.3 27.8552 63.3C26.6552 61.2 26.1552 58.8 25.8552 56.4Z" fill="#FDD27B"/>
<path d="M41.5552 85.5C41.8552 85.5 42.1552 85.5 42.2552 85.2C43.6552 84.9 44.4552 86.1 45.3552 86.8C46.2552 87.5 47.1552 88.2 48.1552 88.9C48.5552 89.5 48.4552 89.9 47.6552 89.6C45.3552 88.5 43.4552 87 41.5552 85.5Z" fill="#FBCE74"/>
<path d="M103.455 87.4C101.955 88.2 100.155 87.7 98.6552 88.5C98.2552 88.6 97.7552 88.8 97.3552 88.6C97.1552 88.5 97.0552 88.4 97.0552 88.2C96.9552 88 96.9552 87.8 97.0552 87.6C97.1552 87.3 97.2552 87.1 97.4552 86.9C99.6552 86.7 101.855 86.5 103.955 86.5C104.555 87.2 103.455 87 103.455 87.4Z" fill="#E6B156"/>
<path d="M29.5552 107.7C29.5552 107.6 29.5552 107.5 29.5552 107.4C30.3552 107.2 30.9552 107.6 31.1552 108.3C31.3552 109 30.6552 109.3 30.1552 109.6C28.4552 110.4 27.2552 112 25.3552 112.3C25.0552 112.2 24.9552 112 24.8552 111.8C26.1552 110.5 27.7552 109.7 29.3552 108.7C29.8552 108.3 30.1552 108.1 29.5552 107.7Z" fill="#F4C975"/>
<path d="M27.8552 63.3C28.0552 62.9 28.3552 63.2 28.5552 63.3C29.8552 65.2 31.3552 66.9 31.8552 69.2C31.7552 69.3 31.5552 69.4 31.4552 69.6C29.6552 67.8 28.5552 65.7 27.8552 63.3Z" fill="#F1C268"/>
<path d="M95.8553 90C93.1553 91.3 90.6553 92.9 87.6553 93.6C87.3553 93.7 87.2553 93.5 87.1553 93.2C87.2553 92.8 87.5553 92.6 87.8553 92.5C90.1553 91.7 92.2553 90.6 94.4553 89.7C94.8553 89.5 95.3553 89.3 95.8553 89.6C96.0553 89.7 96.0553 89.9 95.8553 90Z" fill="#F0C472"/>
<path d="M17.8552 117.3C19.1552 115.4 21.0552 114.2 22.8552 112.9C23.3552 112.9 23.3552 113.2 23.3552 113.5C21.8552 115.3 20.1552 116.9 18.0552 118C17.7552 117.9 17.5552 117.7 17.8552 117.3Z" fill="#E5AE53"/>
<path d="M114.555 84.7C114.455 84.7 114.355 84.8 114.255 84.8C113.155 84.5 112.155 84.4 111.155 85C110.955 85.1 110.755 85 110.555 84.8C110.355 84.4 109.855 84.3 109.455 84.2C108.955 84.1 108.355 84 108.455 83.2C108.655 82.9 108.955 82.8 109.355 82.8C111.355 82.8 113.255 83.1 115.155 83.6C115.655 84.4 114.455 84.3 114.555 84.7Z" fill="#E0A858"/>
<path d="M71.6553 106.8C72.0553 106.4 72.5553 106.3 73.0553 106.2C74.3553 106.8 75.9553 106.6 77.1553 107.3C77.3553 107.5 77.8553 107.4 77.7553 107.9C77.6553 108.4 77.1553 108.3 76.7553 108.4C74.8553 108.3 73.0553 108.2 71.6553 106.8Z" fill="#ECBA5D"/>
<path d="M77.5552 96.8C77.2552 96.8 77.0552 96.7 76.8552 96.4C76.9552 96.3 77.0552 96.1 77.1552 96C79.2552 95.2 81.3552 94.4 83.6552 94.1C83.9552 94.2 84.2552 94.4 84.4552 94.7C82.1552 95.5 79.9552 96.5 77.5552 96.8Z" fill="#FBD27D"/>
<path d="M64.6552 103.1C64.4552 103.4 64.4552 103.7 64.6552 104.1C62.7552 104.1 61.1552 103.5 59.8552 102.1C59.9552 101.9 60.0552 101.6 60.2552 101.4C60.6552 101.4 60.9552 101.4 61.2552 101.7C61.4552 102.2 61.8552 101.9 62.1552 102.1C63.0552 102.1 63.8552 102.6 64.6552 103.1Z" fill="#F9D489"/>
<path d="M76.6553 108.1C76.8553 108.1 77.1553 108 77.3553 108C77.2553 107.8 77.1553 107.6 77.0553 107.4C79.4553 107.5 81.7553 107.6 84.1553 107.7C84.1553 107.8 84.1553 107.9 84.1553 108C82.9553 108.7 81.3553 108.2 80.1553 108.8C78.9553 108.8 77.6553 109.4 76.6553 108.1Z" fill="#F4C871"/>
<path d="M29.9552 43C29.5552 42.9 28.8552 43.2 29.2552 42.3C30.6552 41.8 32.0552 42.1 33.4552 42.1C33.8552 42.1 34.2552 42.1 34.6552 42.2C34.8552 42.3 34.8552 42.5 34.6552 42.6C33.9552 43 33.1552 42.9 32.5552 43.3C31.6552 43.5 30.7552 43.6 29.9552 43Z" fill="#F3C66D"/>
<path d="M14.7552 141.8C14.4552 141.8 14.0552 141.7 13.7552 142.1C12.6552 141.6 11.4552 141 10.5552 140.1C10.6552 139.8 10.6552 139.5 11.0552 139.3C12.5552 139.7 13.9552 140.3 14.7552 141.8Z" fill="#FED88B"/>
<path d="M17.8553 117.3C17.8553 117.6 17.9553 117.8 18.1553 117.9C18.2553 118.7 19.3553 118.4 19.4553 119.2C19.1553 119.6 18.7553 119.8 18.3553 119.9C17.8553 119.8 17.0553 120 16.8553 119.3C16.7553 118.5 17.2553 117.9 17.8553 117.3Z" fill="#F3C874"/>
<path d="M84.4554 94.8C84.1554 94.7 83.8554 94.7 83.7554 94.4C84.6554 93.2 85.9553 92.9 87.3553 93.2C87.4553 93.3 87.5554 93.5 87.7554 93.6C86.6554 94.2 85.6554 94.6 84.4554 94.8Z" fill="#F5CC7B"/>
<path d="M110.655 84.7C110.755 84.8 110.955 85 111.055 85.1C109.755 85.6 108.555 86.4 107.055 86.6C106.655 86.7 106.655 86.5 106.555 86.2C107.655 85 109.055 84.4 110.655 84.7Z" fill="#E1AA5A"/>
<path d="M18.3553 119.9C18.4553 119.2 18.9553 119.2 19.4553 119.2C19.8553 120.2 19.5553 120.8 18.1553 121.8C17.7553 121.7 17.8553 121.3 17.7553 121.1C17.6553 120.6 18.2553 120.4 18.3553 119.9Z" fill="#ECBA5F"/>
<path d="M23.1552 113.6C23.1552 113.3 23.1552 113.1 22.8552 112.9C23.2552 112.1 24.1552 112.1 24.8552 111.7C24.9552 111.8 25.0552 112 25.2552 112.1C24.9552 113.2 24.1552 113.6 23.1552 113.6Z" fill="#EDBE68"/>
<path d="M95.8553 90C95.8553 89.9 95.8553 89.7 95.8553 89.6C95.6553 89.3 95.8553 89.1 96.0553 88.8C96.3553 88.5 96.7553 88.3 97.2553 88.3C97.7553 88.3 98.1553 88.4 98.6553 88.4C97.8553 89.3 96.7553 89.5 95.8553 90Z" fill="#ECC175"/>
<path d="M47.6553 89.6C48.1553 89.6 48.2553 89.4 48.0553 88.9C49.0553 88.6 49.6553 88.9 49.9553 89.9C49.7553 90.2 49.5553 90.2 49.2553 90.3C48.5553 90.2 48.0553 90 47.6553 89.6Z" fill="#FCD688"/>
<path d="M17.7554 121.2C17.9554 121.4 18.0554 121.6 18.0554 121.9C18.1554 122.7 17.7554 123.2 17.0554 123.4C16.7554 123.4 16.3554 123.4 16.4554 122.8C16.8554 122.2 17.2554 121.7 17.7554 121.2Z" fill="#EBB95E"/>
<path d="M101.255 95.4C101.255 95.9 101.555 96 101.955 96C101.555 96.4 101.155 96.8 100.555 97C100.455 96.7 100.455 96.4 100.255 96.3C100.555 96 100.855 95.7 101.255 95.4Z" fill="#ECBF6D"/>
<path d="M103.455 87.4C103.655 87.2 103.855 87 104.155 86.7C104.355 86.5 104.555 86.4 104.855 86.4C105.255 86.5 105.755 86.4 105.755 87C104.955 87.4 104.155 87.4 103.455 87.4Z" fill="#E5AD53"/>
<path d="M105.655 87C105.355 86.6 104.955 86.7 104.655 86.6C105.155 85.8 105.855 85.7 106.755 86.1C106.855 86.2 107.055 86.3 107.155 86.4C106.655 86.7 106.155 86.8 105.655 87Z" fill="#E9BA6B"/>
<path d="M62.9552 97.2C62.7552 96.8 62.8552 96.6 63.3552 96.6C63.5552 96.5 63.7552 96.5 63.9552 96.7C63.9552 97 64.6552 96.9 64.2552 97.4C63.7552 97.2 63.3552 97.2 62.9552 97.2Z" fill="#FDD27A"/>
<path d="M22.3552 43C22.5552 43.1 22.8552 43.2 22.8552 43.3C22.6552 43.8 22.3552 44 21.8552 44C21.6552 43.4 21.9552 43.2 22.3552 43Z" fill="#F5C76A"/>
<path d="M16.3553 122.8C16.4553 123.1 16.7553 123.1 16.9553 123.1C17.0553 123.6 16.7553 123.8 16.2553 123.7C16.1553 123.4 15.8553 123.4 15.6553 123.4C15.8553 123.1 16.0553 122.8 16.3553 122.8Z" fill="#ECBA5F"/>
<path d="M62.1552 102C61.7552 102.2 61.1552 102.5 61.2552 101.6C61.5552 101.7 61.9552 101.6 62.1552 102Z" fill="#FADDA4"/>
<path d="M10.9554 139.4C10.9554 139.7 10.8554 139.9 10.6554 140C10.5554 139.9 10.4554 139.8 10.2554 139.7C10.6554 139.5 10.3554 139.2 10.3554 139C10.6554 138.9 10.9554 138.8 10.9554 139.4Z" fill="#FED88A"/>
<path d="M54.7554 16.6C56.8554 20.6 58.9554 24.5 60.9554 28.5C61.4554 29.2 61.6554 30 61.9554 30.8C62.6554 32.6 63.9554 34.1 64.3554 36C64.3554 36.6 64.8554 37.4 63.7554 37.6C62.2554 35.7 61.4554 33.5 60.4554 31.4C58.4554 27 56.1554 22.7 53.8554 18.4C53.5554 17.8 53.1554 17.3 53.2554 16.6C53.8554 16.1 54.3554 16.7 54.7554 16.6Z" fill="#F7C96C"/>
<path d="M64.0554 37.6C64.5554 37.2 63.7554 36.5 64.3554 36C65.8554 37.8 66.7554 40 67.8554 42.1C69.8554 45.7 72.0554 49.3 74.2554 52.8C74.3554 53 74.4554 53.3 74.5554 53.5C74.3554 53.9 74.1554 54.2 73.7554 54.2C72.8554 53.9 72.5554 53 72.0554 52.3C69.3554 47.9 66.6554 43.5 64.3554 38.9C64.1554 38.6 63.7554 38.2 64.0554 37.6Z" fill="#F2C261"/>
<path d="M54.7552 16.6C54.2552 17.9 53.9552 16.2 53.5552 16.6C52.9552 16.5 52.6552 16 52.4552 15.5C51.8552 14.1 50.9552 12.8 50.3552 11.3C48.9552 7.60001 46.4552 4.70001 43.4552 2.10001C43.2552 1.80001 43.0552 1.60002 43.0552 1.20002C43.1552 0.900018 43.1552 0.500012 43.6552 0.600012C45.1552 1.00001 45.6552 2.60001 46.7552 3.30001C47.2552 3.60001 47.6552 4.00002 47.9552 4.40002C50.7552 7.60002 52.0552 11.6 54.0552 15.2C54.3552 15.8 54.6552 16.2 54.7552 16.6Z" fill="#E9B555"/>
<path d="M104.655 70.2C103.955 69.7 103.355 69.1 102.655 68.5C102.255 68.1 101.655 67.7 101.855 67C102.055 66.1 102.855 66.7 103.355 66.2C103.055 65.3 102.355 64.7 101.555 64.2C99.8553 62 98.4553 59.6 97.6553 56.9C97.3553 56.4 97.3553 55.9 98.0553 55.8C98.7553 56 98.9553 56.7 99.2553 57.2C100.655 60.2 102.155 63.1 104.655 65.3C105.155 65.7 105.455 66.4 104.855 66.8C103.655 67.6 104.155 68.2 104.855 68.8C105.055 68.9 105.055 69.2 105.155 69.4C105.455 70 105.455 70.5 104.655 70.2Z" fill="#FED177"/>
<path d="M41.6552 11.9C41.6552 10 41.7552 8.00001 41.7552 6.10001C41.7552 5.50001 41.2552 4.8 42.1552 4.5C42.6552 5 42.5552 5.7 42.5552 6.3C42.5552 6.9 42.5552 7.50001 42.4552 8.10001C42.4552 8.60001 42.2552 9 43.0552 9.3C43.7552 9.6 44.1552 10.7 43.2552 11.5C42.6552 11.5 42.8552 11 42.7552 10.7C42.8552 11.7 43.0552 12.8 43.2552 13.8C43.2552 16.5 43.1552 19.3 43.0552 22C42.8552 22.6 43.0552 23.5 42.0552 23.5C41.3552 23 42.0552 22.2 41.6552 21.7C41.3552 19.6 41.7552 17.4 41.6552 15.3C41.7552 14.1 41.9552 13 41.6552 11.9Z" fill="#FED37D"/>
<path d="M157.155 78.8C157.055 78.8 156.955 78.8 156.855 78.8C156.455 78.5 156.055 78.3 155.555 78.8C153.255 78.8 151.055 78.9 148.755 78.9C148.655 78.5 148.955 78.3 149.055 78C149.255 77.9 149.555 77.8 149.755 77.8C151.455 77.3 153.255 78 154.955 77.6C155.455 77.6 155.955 77.6 156.555 77.6C157.555 77.4 158.555 77.6 159.555 77.6C160.055 77.7 160.555 77.8 161.155 77.9C161.855 77.9 162.255 78.3 161.755 79.1C161.455 79.1 161.155 79.1 160.755 79.1C159.455 78.8 158.355 78.6 157.155 78.8Z" fill="#F2C468"/>
<path d="M121.755 53.6C122.755 54.5 123.655 55.6 124.055 56.9C124.855 59.3 126.255 61.4 126.855 63.8C127.055 64.4 127.255 64.9 126.655 65.4C126.055 65.4 125.855 64.9 125.755 64.4C124.855 61.9 123.555 59.7 122.755 57.2C122.455 56.1 121.555 55.3 121.155 54.3C121.255 54 121.355 53.8 121.755 53.6Z" fill="#E9B75E"/>
<path d="M42.5554 44.9C42.5554 43.5 41.9554 42.2 41.6554 40.9C41.4554 39.9 41.6554 39.3 42.6554 38.9C42.9554 39.1 43.2554 39.2 43.5554 39.4C44.0554 39.7 44.6554 39.8 45.1554 40.1C45.2554 40.2 45.3554 40.4 45.2554 40.5C44.8554 41 44.2554 40.9 43.6554 40.9C43.4554 40.8 43.1554 40.8 43.0554 40.5C42.9554 40.7 43.1554 40.9 43.1554 41.1C43.3554 42 43.7554 42.9 43.7554 43.9C43.7554 44.4 43.8554 44.9 44.1554 45.4C44.2554 45.5 44.2554 45.7 44.2554 45.8C44.0554 46.6 44.4554 47.8 43.0554 47.8C42.8554 47.7 42.6554 47.6 42.5554 47.4C42.4554 46.9 42.7554 46.6 42.8554 46.2C42.8554 45.7 42.7554 45.3 42.5554 44.9Z" fill="#E7B051"/>
<path d="M126.555 65.5C127.055 65.1 126.755 64.5 126.855 64C127.955 66.8 129.055 69.6 129.855 72.5C129.455 72.5 129.255 72.9 128.855 72.8C127.355 70.8 126.955 68.4 126.355 66.1C126.255 65.8 126.455 65.6 126.555 65.5Z" fill="#F0C166"/>
<path d="M139.255 78.9C139.155 78.9 139.055 78.9 139.055 78.8C138.955 78.2 139.455 78.2 139.755 78.1C139.955 78.1 140.055 78.1 140.255 78.2C141.255 78.5 142.255 78.6 143.255 78.4C143.455 78.4 143.655 78.4 143.855 78.4C144.355 78.1 144.855 78.2 145.455 78.1C145.655 78.1 145.755 78 145.955 78.1C146.255 78.2 146.555 78.3 146.555 78.7C146.555 79.1 146.055 79 145.855 79.2C143.755 79.4 141.855 80.3 139.755 80.3C139.355 80.4 138.955 80.6 138.755 80.1C138.555 79.7 139.255 79.8 139.355 79.5C139.555 79.3 139.555 79.1 139.255 78.9Z" fill="#D8953B"/>
<path d="M42.2553 6.5C42.2553 5.8 42.2553 5.2 42.2553 4.5C41.8553 4.1 42.0553 3.40001 41.6553 2.90001C41.6553 1.90001 40.8553 0.6 42.4553 0C42.9553 0.1 43.3553 0.300012 43.6553 0.700012C43.3553 0.800012 43.3553 1.10001 43.2553 1.40001C43.0553 1.90001 43.4553 2.3 43.5553 2.8C43.6553 3.3 43.6553 3.8 43.5553 4.3C43.3553 4.9 43.5553 5.4 43.6553 6C43.6553 6.2 43.5553 6.30001 43.4553 6.40001C43.0553 6.80001 42.6553 6.9 42.2553 6.5Z" fill="#F7C86A"/>
<path d="M129.155 72.7C129.155 72.1 129.455 72.2 129.855 72.3C130.355 73 130.855 73.6 131.155 74.4C131.755 75.8 132.955 76.3 134.155 76.7C133.855 77.2 133.255 77 132.855 77.3C132.355 77.2 131.855 77.1 131.255 77C131.155 77.1 130.955 77.1 130.855 77C130.455 76.8 130.155 76.6 129.755 76.4C129.655 76.3 129.555 76.2 129.555 76.1C129.655 75.7 130.055 75.7 130.055 75.2C129.855 74.4 128.755 73.9 129.155 72.7Z" fill="#ECB655"/>
<path d="M109.755 46.4C111.355 46 114.155 47.3 115.355 49C115.755 49.5 116.055 50.1 116.355 50.6C116.655 50.9 116.455 51.2 116.155 51.3C114.755 50.7 114.155 49.2 112.855 48.4C112.055 47.9 111.355 47.3 110.455 48C110.055 48.2 109.555 48.5 109.255 47.8C109.355 47.3 109.455 46.8 109.755 46.4Z" fill="#EFC36F"/>
<path d="M32.8552 43C33.2552 41.9 34.2552 42.7 34.8552 42.4C35.4552 42.3 36.1552 42.2 36.7552 42.5C37.8552 43 39.1552 43.2 40.2552 43.9C40.0552 44.3 39.7552 44.6 39.3552 44.7C37.1552 44.1 34.7552 44.3 32.8552 43Z" fill="#EDBB5F"/>
<path d="M43.4553 36.6C42.4553 35.1 42.7553 33.3 42.2553 31.7C42.0553 31.2 42.2553 30.7 42.2553 30.2C42.2553 29.4 42.0553 28.6 42.1553 27.7C42.1553 27.5 42.0553 27.4 42.1553 27.2C42.3553 26.8 42.3553 26.3 43.0553 26.5C43.1553 26.6 43.2553 26.8 43.2553 26.9C43.3553 27.6 43.2553 28.3 43.5553 28.9C43.8553 31.3 44.0553 33.7 44.2553 36C43.9553 36.4 43.7553 36.7 43.4553 36.6Z" fill="#EEBF67"/>
<path d="M116.055 51.2C116.355 51.1 116.355 50.9 116.355 50.6C117.055 51.5 117.655 52.5 118.355 53.4C119.655 52 119.655 52 121.755 53.7C121.655 53.9 121.555 54.1 121.355 54.4C120.555 54.3 119.655 53.8 118.855 54.6C118.455 55 117.855 54.7 117.555 54.3C116.955 53.3 116.155 52.4 116.055 51.2Z" fill="#F4CA79"/>
<path d="M95.2553 45.2C95.0553 44.8 94.4553 44.5 94.5553 43.9C94.3553 43.2 94.3553 42.6 94.5553 41.9C95.2553 41.5 95.8553 41.8 96.5553 42C97.2553 42.3 98.0553 42.4 98.7553 42.7C98.9553 42.8 99.1553 43 99.3553 43.1C99.6553 43.4 99.4553 43.7 99.1553 43.9C98.1553 44.3 97.1553 43.4 96.1553 43.6C95.8553 43.8 95.6553 44 95.6553 44.3C95.6553 44.5 95.6553 44.7 95.5553 44.9C95.6553 45.2 95.5553 45.3 95.2553 45.2Z" fill="#E0A549"/>
<path d="M99.0552 43.8C99.3552 43.7 99.4552 43.5 99.4552 43.2C101.055 43.7 102.655 44.2 104.255 44.7C104.655 45 105.055 45.1 105.555 45.3C106.255 46 105.755 46.1 105.155 46.2C103.455 45.8 101.855 45.3 100.255 44.7C99.7552 44.6 99.1552 44.5 99.0552 43.8Z" fill="#E2A950"/>
<path d="M161.655 78.9C161.655 78.4 161.655 77.9 160.955 78.1C160.355 78.3 160.055 78.1 159.855 77.6C161.055 77.5 162.255 77.3 163.355 77.8C163.755 78.3 165.155 78 164.855 79.1C164.555 80.2 163.555 79.1 162.955 79.3C162.455 79.4 162.055 79.1 161.655 78.9Z" fill="#FDD584"/>
<path d="M105.155 45.9C105.655 45.9 105.755 45.7 105.555 45.3C106.455 45.8 107.455 46.2 108.355 46.7C108.655 47 109.355 47 109.355 47.6C109.655 48.2 109.955 47.7 110.355 47.7C110.555 48.8 109.855 49.1 109.055 48.8C107.655 48.1 106.155 47.4 105.155 45.9Z" fill="#ECBB62"/>
<path d="M39.5552 44.5C39.5552 44.1 39.8552 44 40.2552 44C41.2552 44 41.7552 45 42.4552 45.4C42.9552 45.5 43.0552 46 43.3552 46.3C43.1552 46.6 42.9552 46.9 42.6552 47.3C41.2552 46.8 40.3552 45.7 39.5552 44.5Z" fill="#E4AA4B"/>
<path d="M98.3554 56C97.7554 56 97.6554 56.4 97.6554 56.9C96.9554 55.8 96.7554 54.8 98.0554 54C98.2554 53.6 98.4554 53.3 98.9554 53.3C99.6554 53.5 100.255 54 100.155 54.8C100.055 55.8 99.1554 55.8 98.3554 56Z" fill="#FED789"/>
<path d="M96.9553 50.8C96.1553 49.4 95.5553 47.9 95.4553 46.2C95.5553 45.9 95.7553 45.8 95.9553 45.8C96.1553 45.8 96.2553 45.9 96.3553 46C96.8553 47.4 97.5553 48.7 97.5553 50.2C97.4553 50.6 97.3553 51 96.9553 50.8Z" fill="#F0C066"/>
<path d="M42.7554 26.6C42.5554 26.8 42.3554 27 42.1554 27.2C41.8554 26.9 42.1554 26.5 41.8554 26.2C41.8554 25.8 41.8554 25.4 41.8554 24.9C41.7554 24.4 41.6554 23.8 41.9554 23.3C42.8554 23.2 42.5554 22.5 42.6554 22C43.6554 23 43.6554 24.9 42.7554 26.6Z" fill="#FCD27F"/>
<path d="M96.9553 50.8C97.2553 50.7 97.3553 50.4 97.3553 50.1C98.3553 51 98.8553 52.1 98.7553 53.5C98.7553 53.9 98.5553 54.1 98.0553 54.1C97.4553 53.1 96.8553 52.1 96.9553 50.8Z" fill="#FACF79"/>
<path d="M132.955 77.3C133.255 76.7 133.755 76.7 134.255 76.7C135.055 76.8 135.755 77 136.455 77.4C136.655 77.7 136.655 77.9 136.355 78.1C135.155 78.2 134.055 77.7 132.955 77.3Z" fill="#E1A852"/>
<path d="M145.755 79.1C146.255 78.8 146.455 78.4 145.755 78.1C145.755 78 145.755 77.9 145.855 77.8C145.955 77.8 146.055 77.8 146.155 77.8C147.155 77.6 148.055 77.7 149.055 77.8V77.9C149.455 78.4 148.855 78.5 148.755 78.8C147.755 78.9 146.755 79 145.755 79.1Z" fill="#E4AC50"/>
<path d="M136.455 78.2C136.455 78 136.455 77.7 136.555 77.5C137.355 77.6 138.155 77.8 139.055 77.9C139.255 78 139.655 78 139.755 78.2C139.555 78.4 139.355 78.6 139.055 78.8C138.055 78.9 137.155 78.7 136.455 78.2Z" fill="#DB9D49"/>
<path d="M73.8552 54.2C73.8552 53.8 74.0552 53.6 74.5552 53.6C74.8552 53.9 75.2552 54.3 75.5552 54.6C75.5552 54.8 75.5552 55 75.5552 55.2C75.2552 55.5 75.5552 56 75.1552 56.2C74.0552 55.8 73.6552 55.2 73.8552 54.2Z" fill="#EBB95D"/>
<path d="M43.4553 36.6C43.5553 36.5 43.6553 36.4 43.7553 36.2C44.4553 36.4 44.4553 37 44.6553 37.5C44.6553 37.9 44.6553 38.3 44.2553 38.6C43.9553 38.6 43.8553 38.4 43.7553 38.2C43.5553 37.7 43.5553 37.1 43.4553 36.6Z" fill="#EABB6B"/>
<path d="M157.155 78.8C158.355 78.4 159.555 78.5 160.655 78.9C160.355 78.9 160.055 78.9 159.655 79C158.855 78.9 157.955 78.9 157.155 78.8Z" fill="#FDD584"/>
<path d="M143.255 78.4C142.155 78.8 141.055 78.8 140.055 78.3C140.355 78 140.655 78.1 141.055 78.3C141.755 78.3 142.455 78.4 143.255 78.4Z" fill="#DB9D49"/>
<path d="M42.0552 29.4C42.0552 28.8 42.1552 28.1 42.1552 27.5C42.7552 28.4 42.3552 29.3 42.3552 30.2C42.2552 30.2 42.1552 30.2 42.0552 30.1C42.0552 29.8 42.0552 29.6 42.0552 29.4Z" fill="#FCD27F"/>
<path d="M43.3553 46.3C42.9553 46.1 42.6553 45.8 42.4553 45.4C42.4553 45.3 42.5553 45.1 42.5553 45C43.2553 45.1 43.2553 45.7 43.3553 46.3Z" fill="#F4DCB3"/>
<path d="M95.8553 45.9C95.7553 46 95.5553 46.2 95.4553 46.3C95.0553 46 95.2553 45.6 95.2553 45.3C95.3553 45.2 95.4553 45.1 95.5553 45C96.1553 45.1 96.1553 45.4 95.8553 45.9Z" fill="#E7B259"/>
<path d="M94.3552 42C94.4552 42 94.5552 42 94.6552 42C94.6552 42.6 94.6552 43.3 94.5552 43.9C94.1552 43.3 94.3552 42.6 94.3552 42Z" fill="#E7B259"/>
<path d="M105.555 45.3C105.055 45.3 104.555 45.2 104.255 44.7C104.855 44.7 105.255 44.9 105.555 45.3Z" fill="#ECBB62"/>
<path d="M145.555 78.1C145.055 78.6 144.455 78.3 143.955 78.3C144.055 78.2 144.155 78.1 144.255 78C144.655 77.8 145.055 77.9 145.555 78.1Z" fill="#E4AC50"/>
<path d="M102.055 184.1C101.255 185 99.9552 185.1 98.8552 185.7C99.9552 182.7 101.855 180.1 102.255 176.9C102.655 176.3 102.855 176.5 103.155 177C103.355 177.9 102.955 178.6 102.655 179.4C102.355 180 102.255 180.7 101.855 181.3C101.855 181.4 101.655 181.5 101.655 181.7C101.755 181.6 101.855 181.5 101.855 181.3C102.055 180.8 102.355 180.4 102.455 179.9C103.755 177.2 104.655 174.4 105.855 171.7C106.255 171.3 106.455 170.4 107.355 170.7C107.755 171.3 107.455 171.9 107.255 172.5C106.155 176.1 104.455 179.5 102.355 182.7C102.155 183.1 101.655 183.3 101.755 183.8C101.955 183.9 101.955 184 102.055 184.1Z" fill="#F3C66A"/>
<path d="M99.3554 101.3C102.655 98.1 106.655 95.9 110.555 93.6C112.355 92.6 114.155 91.7 115.955 90.7C116.255 90.9 116.355 91.2 116.355 91.5C115.955 92.4 115.155 92.7 114.355 93C109.655 95.4 105.155 98.1 100.955 101.3C100.455 101.7 100.055 102.3 99.2554 101.9C99.1554 101.8 99.1554 101.5 99.3554 101.3Z" fill="#F6C96F"/>
<path d="M119.255 170.4C117.155 173.4 114.255 175.4 111.555 177.6C109.955 178.9 108.255 180.3 106.355 181.3C106.055 181.4 105.955 181.3 105.855 181C105.855 180.4 106.255 180.1 106.755 179.7C110.655 176.7 114.755 173.8 118.055 170C118.255 169.8 118.555 169.6 118.855 169.6C119.355 169.7 119.555 169.9 119.255 170.4Z" fill="#FACF76"/>
<path d="M90.3552 145.1C88.4552 140.3 87.9552 135.4 88.6552 130.3C88.9552 128.5 89.0552 126.7 89.7552 125C89.9552 124.7 90.2552 124.4 90.5552 124.9C90.9552 126 90.4552 127 90.1552 128.1C89.0552 132.8 89.3552 137.4 90.5552 142C90.7552 142.7 90.9552 143.3 90.9552 144.1C91.0552 144.5 91.0552 145.1 90.3552 145.1Z" fill="#F1C369"/>
<path d="M134.555 149.3C134.355 151.7 133.555 154 132.655 156.2C131.655 158.7 130.655 161.3 129.155 163.6C128.655 163.6 128.655 163.2 128.555 162.9C128.555 162.3 128.755 161.9 128.955 161.4C130.655 157.9 132.055 154.2 132.855 150.4C132.955 149.8 133.055 149.2 133.655 148.9C134.055 148.8 134.355 149 134.555 149.3Z" fill="#FED278"/>
<path d="M128.455 82.3C131.155 81.5 133.855 80.7 136.655 80.3C136.955 80.4 137.255 80.4 137.455 80.7C135.255 81.6 132.955 82.3 131.155 84C131.055 84.1 130.955 84.1 130.755 84.1C130.155 83.7 129.755 84.5 129.255 84.3C128.655 83.9 129.355 82.8 128.455 82.3Z" fill="#F0BE5B"/>
<path d="M99.3552 101.3C99.3552 101.6 99.3552 101.8 99.3552 102.1C99.4552 102.8 98.8552 103.1 98.4552 103.5C95.5552 106.3 92.7552 109.2 90.9552 112.9C90.7552 113.3 90.5553 113.7 90.0553 113.7C89.6553 113.5 89.6552 113.2 89.8552 112.9C91.7552 108.1 95.4552 104.6 99.3552 101.3Z" fill="#EBB860"/>
<path d="M128.855 162.9C128.955 163.1 129.055 163.4 129.155 163.6C127.755 167 124.855 169.2 122.555 171.9C122.355 172.1 122.055 172.3 121.855 172.2C121.455 172.1 121.455 171.7 121.455 171.4C121.355 170.3 121.555 169 120.555 168.2C120.255 167.3 120.955 167.4 121.455 167.5C122.255 168 121.955 169.1 122.555 169.9C124.355 168 126.255 166.4 127.555 164.2C127.955 163.7 128.055 163 128.855 162.9Z" fill="#FED582"/>
<path d="M140.155 125.5C141.155 129.8 140.555 134.2 140.355 138.5C140.355 139 140.155 139.5 139.955 140.1C139.555 140.1 139.455 139.9 139.355 139.6C139.155 138.8 139.255 137.9 139.255 137C139.655 133.4 139.155 129.7 138.855 126.1C138.955 125.6 139.055 125 139.555 124.9C140.155 124.8 140.055 125.3 140.155 125.5Z" fill="#EDBC5E"/>
<path d="M98.1552 153.8C96.9552 152.2 95.6552 150.6 94.4552 149C94.3552 149.1 94.2552 149.1 94.1552 149.2C93.8552 149.8 94.3552 151 93.7552 151.1C92.7552 151.1 92.6552 149.9 92.2552 149.1C92.1552 148.7 92.4552 148.6 92.7552 148.4C93.1552 148.2 93.4552 147.9 93.7552 147.7C94.3552 147.2 95.0552 147.3 95.4552 147.9C96.6552 149.6 98.1552 151.2 98.8552 153.3C98.6552 153.5 98.6552 153.9 98.1552 153.8Z" fill="#FED37C"/>
<path d="M128.155 90.1C128.355 93.7 129.955 97 130.755 100.4C130.855 100.9 130.855 101.3 130.155 101.3C129.755 101.1 129.555 100.7 129.455 100.3C128.455 97.5 127.455 94.6 126.955 91.6C126.855 91 126.655 90.3 127.355 89.9C127.755 89.9 127.955 89.9 128.155 90.1Z" fill="#EBB85B"/>
<path d="M119.555 88.5C120.755 87.7 121.955 86.9 123.255 86.1C123.755 85.1 124.855 85.1 125.555 84.7C125.755 84.7 125.855 84.7 126.055 84.7C126.655 84.9 126.855 85.3 126.755 85.9C126.155 87.2 125.155 88.1 123.855 88.7C123.555 88.7 123.255 88.7 123.055 88.4C122.255 87.8 122.055 88.8 121.455 89C120.855 89.3 120.355 89.7 119.655 89.5C119.355 89.1 119.255 88.8 119.555 88.5Z" fill="#E4A949"/>
<path d="M139.755 139.7C139.855 139.8 139.955 139.9 140.055 140.1C139.755 142.3 139.255 144.4 138.355 146.4C138.155 146.9 137.955 147.7 137.255 147.7C136.555 147.7 136.655 146.9 136.455 146.4C136.255 145.9 135.955 145.4 136.055 144.9C135.855 144.5 135.755 144.1 136.255 143.8C137.255 143.8 137.255 144.6 137.455 145.2C137.955 143.6 138.655 142.1 139.055 140.5C139.155 140.1 139.255 139.7 139.755 139.7Z" fill="#F3C66C"/>
<path d="M130.155 101.2C130.655 101.2 130.755 100.9 130.855 100.5C131.855 102.8 132.755 105.1 133.455 107.5C133.755 108.1 133.455 108.3 132.855 108.3C132.555 108.2 132.255 108 132.155 107.7C131.355 105.9 130.855 104.1 130.055 102.4C129.955 102 129.855 101.6 130.155 101.2Z" fill="#EFC066"/>
<path d="M86.0553 108.3C86.2553 108.7 86.6553 108.7 87.0553 108.7C85.6553 110.9 84.4553 113.3 83.2553 115.7C82.7553 115.8 82.7553 115.4 82.6553 115.1C82.7553 113.6 83.5553 112.5 84.4553 111.4C84.4553 111.3 84.5553 111.3 84.5553 111.2C84.5553 111 84.3553 111 84.4553 111.1C84.6553 111.2 84.2553 111.4 84.3553 111.2C84.0553 111.6 83.7553 112 83.2553 111.9C83.0553 111.8 82.8553 111.6 82.8553 111.4C83.6553 110 84.6553 109 86.0553 108.3Z" fill="#EDC070"/>
<path d="M134.955 110.8C135.955 112.6 136.955 114.4 137.655 116.4C137.455 116.8 137.455 117.3 136.855 117.4C135.355 115.7 134.855 113.4 133.855 111.5C134.055 110.9 133.955 109.9 134.955 110.8Z" fill="#F5C76C"/>
<path d="M91.9553 118.6C91.9553 118.4 92.0553 118.2 92.0553 118C92.2553 117.2 93.2553 116.2 92.4553 115.6C91.8553 115.2 90.9553 116.2 90.1553 116.7C90.0553 116.8 89.8553 116.8 89.7553 116.9C89.3553 117.1 89.1553 117.1 88.9553 116.6C89.1553 116 89.5553 115.6 90.0553 115.2C90.7553 114.7 91.4553 114.2 92.3553 114C93.4553 113.7 94.0553 114.2 94.0553 115.3C93.9553 116.6 93.7553 117.9 92.6553 118.8C92.3553 118.9 92.1553 118.8 91.9553 118.6Z" fill="#E7B45E"/>
<path d="M98.1553 153.8C98.4553 153.7 98.4553 153.4 98.4553 153.1C98.9553 153 99.1553 153.4 99.3553 153.7C100.455 156 101.455 158.2 101.955 160.7C101.855 161.1 101.455 161.2 101.055 161.3C100.055 158.8 99.3553 156.2 98.1553 153.8Z" fill="#FCD482"/>
<path d="M128.155 90.1C127.955 90.1 127.755 90.1 127.455 90C126.955 89.6 127.055 89 127.155 88.5C127.655 87 128.155 85.6 129.355 84.5C129.755 84.3 130.055 83.8 130.555 84C130.655 84 130.855 84 130.955 84.1C129.855 86 128.655 87.9 128.155 90.1Z" fill="#F1C36B"/>
<path d="M102.855 177C102.655 176.6 102.455 176.9 102.255 176.9C102.655 174.3 102.955 171.8 102.855 169.2C103.655 169.4 103.655 170.3 104.055 170.8C104.455 172.7 103.855 174.4 103.555 176.2C103.455 176.6 103.355 177 102.855 177Z" fill="#FAD58A"/>
<path d="M134.555 149.3C134.255 149.3 134.055 149.2 133.855 148.9C133.155 146.8 133.455 144.8 134.355 142.9C135.255 142.8 135.355 143.5 135.255 144C135.155 144.7 135.355 145.5 134.955 146.2C134.955 147.2 135.055 148.3 134.555 149.3Z" fill="#F3C466"/>
<path d="M136.955 117.4C137.055 117 136.955 116.4 137.655 116.4C138.355 117.8 139.055 119.3 139.155 121C139.055 121.4 138.955 121.8 138.355 121.7C137.355 120.4 136.855 119 136.955 117.4Z" fill="#EBB758"/>
<path d="M91.9552 118.6C92.1552 118.6 92.3552 118.6 92.6552 118.6C92.5552 120.9 91.9552 122.9 90.4552 124.7C90.2552 124.8 90.0552 124.9 89.8552 125C90.1552 122.8 90.9552 120.7 91.9552 118.6Z" fill="#EEC270"/>
<path d="M138.455 121.6C138.655 121.4 138.955 121.2 139.155 121C139.755 122.5 140.155 124 140.255 125.6C139.555 124.6 139.655 125.9 139.355 125.9C138.355 124.5 137.955 123.1 138.455 121.6Z" fill="#EEC16D"/>
<path d="M101.055 161.4C101.055 160.9 101.355 160.9 101.655 161.1C102.855 162.3 103.155 163.8 103.255 165.4C103.155 165.9 103.255 166.6 102.455 166.6C102.055 164.8 101.555 163.1 101.055 161.4Z" fill="#EFC169"/>
<path d="M119.555 88.5C119.555 88.8 119.655 89.1 119.955 89.2C119.055 90.6 117.955 91.4 116.255 91.3C115.955 91.2 115.955 90.9 115.955 90.7C117.055 89.8 118.255 89.1 119.555 88.5Z" fill="#EAB65B"/>
<path d="M134.955 110.8C134.155 110.3 134.355 111.2 134.055 111.4C132.755 110.5 132.355 109.5 132.755 108.1C133.155 108.1 133.355 107.9 133.455 107.5C133.955 108.6 134.455 109.7 134.955 110.8Z" fill="#F4C66C"/>
<path d="M121.255 167.6C121.055 167.8 120.455 167.6 120.555 168.2C120.255 169 119.855 169.8 119.155 170.4C119.155 170 119.055 169.8 118.555 169.7C118.455 168.4 119.355 167.7 119.955 166.7C120.155 166.4 120.555 166.2 120.955 166.4C121.455 166.8 121.655 167.1 121.255 167.6Z" fill="#FED581"/>
<path d="M105.855 180.9C105.955 181 106.055 181.2 106.255 181.3C104.855 182.2 103.455 183.1 101.955 184.1C101.755 184.1 101.655 184 101.455 184C101.555 183.5 101.955 183.2 102.155 182.9C103.455 182.2 104.255 180.7 105.855 180.9Z" fill="#F5CC78"/>
<path d="M102.555 166.6C103.055 166.3 102.855 165.7 102.955 165.3C104.055 166.5 104.455 169.2 103.655 170.6C102.855 170.5 103.355 169.6 102.855 169.3C102.755 168.3 102.655 167.5 102.555 166.6Z" fill="#FDD583"/>
<path d="M135.055 146.1C134.955 145 135.555 143.8 134.455 142.8C134.355 142.2 134.755 141.9 135.355 142.1C136.155 142.4 136.655 142.9 136.455 143.9C136.055 144.1 136.155 144.5 136.055 144.9C135.855 144.9 135.655 144 135.455 144.8C135.255 145.2 135.355 145.7 135.055 146.1Z" fill="#FCCF75"/>
<path d="M82.9553 114.9C82.9553 115.2 83.0554 115.5 83.2554 115.7C82.9554 116.7 82.5553 117.7 81.8553 118.6C81.5553 118.4 81.5553 118.1 81.4553 117.8C81.2553 116.5 81.8553 115.6 82.9553 114.9Z" fill="#F4C871"/>
<path d="M137.455 80.8C137.155 80.7 136.855 80.7 136.655 80.4C137.455 79.8 138.355 79.6 139.255 79.5C138.655 80.1 139.055 80.2 139.655 80.3C138.955 80.6 138.155 80.7 137.455 80.8Z" fill="#E4AD58"/>
<path d="M89.1553 116.5C89.2553 116.8 89.4553 116.9 89.7553 117C88.8553 117.5 88.2553 117.5 88.6553 116.2C88.8553 115.4 89.1553 114.7 89.4553 114C89.6553 114.1 89.8553 114.2 89.9553 114.4C90.0553 114.7 90.0553 115 89.9553 115.3C89.7553 115.7 89.4553 116.1 89.1553 116.5Z" fill="#F4CC81"/>
<path d="M92.8553 148.8C92.5553 148.8 92.3553 148.9 92.1553 149.1C91.5553 148.4 91.3553 147.6 90.9553 146.8C91.1553 146.6 91.4553 146.4 91.7553 146.4C92.5553 147 92.9553 147.7 92.8553 148.8Z" fill="#FEDB93"/>
<path d="M91.6552 146.4C91.5552 146.7 91.2552 146.8 90.9552 146.7C90.6552 146.2 90.3552 145.7 90.3552 145.1C90.7552 144.9 90.6552 144.5 90.7552 144.1C91.6552 144.6 91.8552 145.4 91.6552 146.4Z" fill="#FCD27C"/>
<path d="M125.555 84.9C124.755 85.3 123.955 85.7 123.255 86.1C123.155 85.8 122.855 85.8 122.655 85.7C122.755 85.6 122.855 85.5 122.955 85.4C123.355 85.1 123.855 85 124.255 84.8C124.355 84.8 124.455 84.8 124.555 84.8C124.855 84.6 125.255 84.6 125.555 84.9Z" fill="#F8EBD6"/>
<path d="M155.555 78.8C155.455 78.5 155.355 78.2 155.855 78.2C156.355 78.2 156.855 78.2 156.855 78.8C156.355 78.8 155.955 78.8 155.555 78.8Z" fill="#E9B352"/>
<path d="M89.8553 114.3C89.7553 114.2 89.5553 114 89.4553 113.9C89.5553 113.6 89.5553 113.2 89.8553 113C89.8553 113.3 89.8553 113.6 90.1553 113.7C90.3553 114.1 90.3553 114.3 89.8553 114.3Z" fill="#F2C776"/>
<path d="M84.5552 108.3C83.1552 108.9 81.7552 108.5 80.3552 108.5C81.5552 107.7 82.9552 108.1 84.2552 108C84.3552 108.1 84.4552 108.2 84.5552 108.3Z" fill="#E6AF51"/>
<path d="M12.3554 134.9C17.4554 136 22.5554 136.9 27.7554 137.1C30.4554 137.2 33.2554 136.8 35.9554 137.1C35.8554 137.8 35.3554 137.6 34.9554 137.6C34.6554 137.6 34.3554 137.4 34.3554 137.9C29.9554 138.3 25.6554 137.9 21.3554 137.4C18.1554 137 14.8554 136.5 11.7554 135.5C12.0554 135.4 12.4554 135.7 12.7554 135.4C12.7554 135.3 12.4554 135 12.3554 134.9Z" fill="#FDD178"/>
<path d="M4.75534 133.3C4.55534 133.4 4.25534 133.5 4.05534 133.6C3.75534 133.3 3.05534 133.2 3.45534 132.5C3.85534 132.8 4.25534 133 4.75534 133.3Z" fill="#FCEFD7"/>
<path d="M126.455 86C126.455 85.5 126.455 85 125.755 84.9C126.255 84.4 125.655 84.4 125.455 84.2C125.555 84.1 125.655 84 125.755 83.9C126.155 83.4 126.755 83.3 127.255 83.1C127.455 83 127.555 83 127.755 82.9C127.655 82.8 127.455 82.8 127.355 82.6C127.655 82.3 127.955 82.3 128.355 82.3C130.355 82.2 129.055 83.6 129.255 84.3C129.355 84.4 129.455 84.5 129.355 84.7C128.455 85.2 127.655 86.1 126.455 86Z" fill="#EAB554"/>
<path d="M116.055 84.1C118.155 84 120.255 83.9 122.255 83.8C122.555 84.1 121.055 83.8 122.055 84.4C122.255 84.5 122.655 84.6 122.355 84.9C122.255 85 121.855 85 121.655 85C121.155 84.7 120.555 84.9 120.055 84.9C119.755 84.9 119.455 84.9 119.055 84.8C118.455 84.3 117.655 84.6 116.955 84.4C116.555 84.5 116.255 84.5 116.055 84.1Z" fill="#E8B55F"/>
<path d="M127.455 82.6C127.955 82.7 128.155 82.9 127.655 83.3C127.155 83.7 126.455 83.8 125.855 83.9C125.455 83.4 124.855 83.6 124.255 83.5C125.355 83.2 126.355 82.9 127.455 82.6Z" fill="#E4AC4E"/>
<path d="M125.555 84.2C125.755 84.3 126.055 84.3 126.255 84.4C126.155 84.6 125.955 84.7 125.855 84.9C125.755 84.9 125.655 84.9 125.555 84.9C125.255 84.9 124.855 84.9 124.555 84.8C124.855 84.6 125.155 84.4 125.555 84.2Z" fill="#F2D7A9"/>
<path d="M119.955 84.9C120.555 84.6 121.055 84.4 121.555 85C121.155 85.1 120.655 85.2 120.255 85.3C120.255 85.2 120.155 85.1 119.955 84.9Z" fill="#F6E5CA"/>
<path d="M124.255 84.8C123.855 85.1 123.455 85.3 122.955 85.4C123.155 84.8 123.655 84.7 124.255 84.8Z" fill="#E4AC4E"/>
<path d="M34.3553 62.2C32.3553 59.4 31.3553 56.1 29.8553 53C29.5553 52.4 29.2553 51.9 28.9553 51.3C28.1553 51 28.0553 50.1 27.5553 49.5C27.3553 49 26.9553 48.8 26.7553 48.3C26.6553 48.3 26.5553 48.3 26.4553 48.3C25.6553 47.8 26.0553 47.3 26.4553 46.8C27.1553 46.6 27.3553 47.2 27.6553 47.6C29.1553 49.4 30.4553 51.4 31.4553 53.5C32.5553 55.8 33.5553 58.2 34.8553 60.4C35.0553 60.8 35.2553 61.2 35.2553 61.6C35.1553 62 34.7553 62.1 34.3553 62.2Z" fill="#FAD07A"/>
<path d="M27.7554 49.3C28.1554 50 28.5554 50.6 28.9554 51.3C28.8554 51.4 28.7554 51.5 28.5554 51.6C27.8554 51 27.5554 50.1 27.2554 49.2C27.4554 49.2 27.5554 49.2 27.7554 49.3Z" fill="#FDF4E2"/>
<path d="M27.7553 49.3C27.6553 49.3 27.4553 49.3 27.3553 49.3C26.9553 49.1 26.7553 48.7 26.8553 48.3C27.2553 48.5 27.5553 48.9 27.7553 49.3Z" fill="#FBE6BB"/>
<path d="M116.055 84.1C116.355 84.2 116.755 84.2 117.055 84.3C117.255 84.4 117.555 84.5 117.355 84.9C116.355 85.1 115.455 85 114.455 84.8C114.355 84.6 114.255 84.5 114.155 84.3C114.455 84.3 114.855 84.2 115.155 84.2C115.455 84.2 115.755 84.1 116.055 84.1Z" fill="#D38B32"/>
<path d="M117.455 84.8C117.355 84.6 117.255 84.4 117.155 84.2C117.755 84.4 118.755 83.7 119.055 84.8C118.455 84.9 117.955 84.9 117.455 84.8Z" fill="#DEA043"/>
<path d="M95.7554 86.6C96.2554 86.6 96.8554 86.7 97.2554 87C97.2554 87.2 97.2554 87.4 97.2554 87.7C96.0554 87.7 94.8554 87.3 93.7554 86.8C94.2554 85.9 95.0554 86.7 95.7554 86.6Z" fill="#E8B355"/>
<path d="M94.6553 88.6C95.4553 88.2 96.3553 88.1 97.2553 88.1C97.2553 88.2 97.2553 88.3 97.2553 88.4C96.9553 88.6 96.6553 88.8 96.2553 89C95.9553 88.6 95.5553 89.1 95.2553 89C95.0553 88.9 94.7553 88.9 94.6553 88.6Z" fill="#EFC985"/>
<path d="M108.455 83.6C107.855 83.6 107.255 83.6 106.755 83.3C107.155 82.8 107.755 83.4 108.155 83C108.555 83 108.855 83 109.155 83.3C108.855 83.3 108.555 83.3 108.455 83.6Z" fill="#EBBC66"/>
<path d="M104.655 70.2C105.255 70.2 105.155 69.8 105.055 69.5C105.455 69.3 105.755 69.5 106.055 69.7C110.655 73.1 115.955 74.9 121.455 76C121.855 76.2 122.255 76.2 122.655 76.4C122.755 76.5 122.955 76.6 122.855 76.9C122.455 77.2 121.955 77.1 121.555 76.9C115.255 76.4 109.655 74.1 104.655 70.2Z" fill="#FED583"/>
<path d="M98.1554 78.7C94.7554 76.7 91.6554 74.2 88.7554 71.5C88.8554 70.7 89.2554 71 89.7554 71.2C92.7554 73.6 95.6554 75.9 98.6554 78.3C98.5554 78.7 98.4554 78.9 98.1554 78.7Z" fill="#F3C66E"/>
<path d="M80.9553 63.5C79.2553 61.4 77.4553 59.3 75.7553 57.1C75.6553 56.7 75.5553 56.3 75.1553 56.1C75.1553 55.7 75.1553 55.4 75.5553 55.1C77.3553 57.6 79.6553 59.8 81.4553 62.4C81.4553 63 81.7553 63.5 80.9553 63.5Z" fill="#E7B151"/>
<path d="M108.055 82.9C107.655 83.4 107.155 83.1 106.655 83.2C106.055 83.1 105.455 82.9 104.855 82.8C104.355 83.1 103.655 82.7 103.155 83C102.855 83 102.555 83 102.255 83C101.755 83.2 101.155 82.9 100.555 83.2C99.7554 83.2 98.8554 83.2 98.0554 83.2C97.2554 82.7 98.0554 82.6 98.2554 82.3C99.7554 81.7 101.255 82 102.855 82C103.255 82 103.655 82 103.955 81.7C104.055 81.6 104.255 81.5 104.455 81.5C105.655 82.3 106.855 82.7 108.055 82.9Z" fill="#EBBA63"/>
<path d="M89.6552 71.3C89.2552 71.3 88.9552 71.2 88.6552 71.6C87.1552 70.4 85.7552 69.1 84.5552 67.6C84.7552 67.3 85.0552 67.3 85.3552 67.2C87.0552 68.3 88.1552 70 89.6552 71.3Z" fill="#F3CC81"/>
<path d="M85.4553 67.2C85.2553 67.5 84.9553 67.6 84.6553 67.6C83.3553 66.4 82.0553 65 80.9553 63.6C81.3553 63.4 81.3553 63 81.3553 62.6C82.6553 64.1 84.0553 65.6 85.4553 67.2Z" fill="#EBBA62"/>
<path d="M98.1553 78.7C98.2553 78.6 98.4553 78.5 98.5553 78.4C100.055 79.1 101.655 79.8 102.755 81.1C100.955 80.9 99.5553 79.8 98.1553 78.7Z" fill="#EFC679"/>
<path d="M121.555 77C121.855 77 122.255 77 122.655 77C122.255 76.5 121.555 76.9 121.255 76.4C123.555 75.5 125.855 76 128.255 76.4C128.655 76.9 128.255 77 127.955 77.1C127.655 77.2 127.355 77 127.055 77.1C126.255 77.2 125.455 77.2 124.655 77C124.555 77 124.455 76.9 124.355 77C124.555 77.1 124.555 77.2 124.455 77.4C123.455 77.2 122.455 77.6 121.555 77Z" fill="#FBD68B"/>
<path d="M126.755 76.8C127.255 76.7 127.855 77 128.355 76.6C128.755 76.1 129.355 76.5 129.855 76.3C130.355 76.2 130.655 76.5 130.955 76.9C130.555 77.3 130.055 76.9 129.655 77.2C128.855 77.1 127.955 77.5 127.155 77.2C127.055 77.3 126.855 77.3 126.755 77.2C126.655 77 126.655 76.9 126.755 76.8Z" fill="#F2C46C"/>
<path d="M126.755 76.8V76.9V77C126.155 77.4 125.455 76.9 124.755 77.2C124.655 77.2 124.555 77.2 124.455 77.2C124.155 77 123.855 76.9 123.255 76.6C124.655 76.8 125.755 76.8 126.755 76.8Z" fill="#FED583"/>
<path d="M124.855 77.4C125.455 76.9 126.155 77.3 126.855 77.2C126.955 77.2 127.055 77.2 127.155 77.3C126.355 77.6 125.555 77.3 124.855 77.4Z" fill="#FBD68B"/>
<path d="M104.555 81.6C104.455 81.7 104.355 81.8 104.255 81.9C103.755 82.2 103.455 81.9 103.255 81.5C103.155 81.4 103.055 81.3 102.955 81.1C103.555 81.1 104.055 81.2 104.555 81.6Z" fill="#EAB758"/>
<path d="M139.255 78.9C139.555 78.9 140.155 78.7 140.055 79.3C140.055 79.7 139.555 79.5 139.255 79.5C139.255 79.3 139.255 79.1 139.255 78.9Z" fill="#E4AD58"/>
<path d="M129.655 77.2C130.055 76.8 130.555 77 130.955 76.9C131.055 76.9 131.155 77 131.255 77C130.855 77.4 130.255 77.2 129.655 77.2Z" fill="#FBD68B"/>
<path d="M43.6554 1.89999C43.3554 1.99999 43.2554 2.29999 43.2554 2.59999C42.9554 2.19999 42.8554 1.69999 43.3554 1.29999C43.4554 1.59999 43.5554 1.79999 43.6554 1.89999Z" fill="#FAE9C6"/>
<path d="M43.7553 15.9C43.3553 14.7 43.2553 13.5 43.2553 12.3C43.0553 12 43.0553 11.7 43.2553 11.3C43.3553 10.5 43.7553 9.5 42.3553 9.3C41.9553 9.3 42.0553 8.90001 42.0553 8.70001C42.0553 7.90001 42.1553 7.1 42.1553 6.3C42.6553 6.4 43.0553 6.2 43.4553 6C43.9553 9.6 44.5553 13.1 44.7553 16.7C43.6553 17.4 44.1553 16.2 43.7553 15.9Z" fill="#FDCF72"/>
<path d="M43.2553 11.4C43.2553 11.7 43.2553 12 43.2553 12.4C42.8553 12.6 42.9553 13 42.8553 13.4C42.3553 12.4 42.7553 11.4 42.6553 10.1C42.9553 10.7 43.1553 11 43.2553 11.4Z" fill="#FEEFD2"/>
<path d="M44.0552 45.6C44.4552 46.1 44.4552 46.7 44.6552 47.3C44.8552 47.9 44.9552 48.6 43.9552 48.6C43.5552 48.4 43.1552 48.1 43.0552 47.6C44.4552 47.5 43.5552 46.2 44.0552 45.6Z" fill="#EFBE62"/>
<path d="M44.9554 39.6C45.2554 39.8 44.9554 40 44.9554 40.2C44.3554 40.2 43.7554 40 43.2554 39.6C43.5554 39.5 44.0554 39.7 44.2554 39.3C44.6554 39 44.7554 39.4 44.9554 39.6Z" fill="#F1CF91"/>
<path d="M45.1552 40.3C45.7552 40.9 45.1552 41.1 44.7552 41.1C44.3552 41.1 43.9552 40.7 43.5552 40.6C44.0552 40.4 44.6552 40.7 45.1552 40.3Z" fill="#EBBB63"/>
<path d="M43.4552 44C43.7552 44.4 43.9552 44.9 44.0552 45.4C43.4552 45.1 43.3552 44.6 43.4552 44Z" fill="#EFBE62"/>
<path d="M43.2552 4.5C43.5552 4.9 43.5552 5.40001 43.4552 5.90001C43.0552 5.50001 42.9552 5 43.2552 4.5Z" fill="#FDCF72"/>
<path d="M129.455 75.6C129.855 75.5 130.355 75.9 130.655 75.4C131.155 76.5 129.755 75.7 129.755 76.3C129.255 76.4 128.855 76.2 128.455 75.9C128.555 75.1 129.055 75.5 129.455 75.6Z" fill="#F2C46C"/>
<path d="M42.7554 26.8C43.2554 27.4 42.9554 28.1 42.9554 28.8C42.4554 28.2 42.8554 27.5 42.7554 26.8Z" fill="#FCD27F"/>
<path d="M95.9553 43.3C96.1553 43.6 96.3553 44 96.5553 44.3C96.7553 44.6 96.5553 44.7 96.3553 44.8C95.8553 45 95.8553 44.4 95.5553 44.3C94.9553 43.7 95.8553 43.7 95.9553 43.3Z" fill="#E7B259"/>
<path d="M95.5552 44.3C96.0552 43.9 95.9552 44.6 96.2552 44.6C96.4552 44.8 96.7552 44.9 96.5552 45.3C96.4552 45.5 96.3552 45.7 96.2552 45.9C96.1552 45.9 96.0552 45.8 95.9552 45.8C95.9552 45.5 95.9552 45.1 95.6552 44.8C95.5552 44.7 95.5552 44.5 95.5552 44.3Z" fill="#F6E2BF"/>
<path d="M44.9552 39.6C44.7552 39.5 44.4552 39.4 44.2552 39.3C44.1552 39.1 44.0552 38.8 44.0552 38.6C44.3552 38.3 44.2552 38 44.3552 37.6C44.5552 38.2 44.7552 38.9 44.9552 39.6Z" fill="#ECBE6C"/>
<path d="M106.155 171.9C107.055 168.6 107.955 165.3 108.455 162C108.855 161.9 108.955 162.1 109.155 162.4C109.055 165.3 108.455 168.1 107.255 170.7C106.555 170.8 106.755 171.6 106.155 171.9Z" fill="#F6CB75"/>
<path d="M102.355 179.5C102.455 179.7 102.555 179.9 102.655 180.1C102.455 180.5 102.255 181 101.955 181.4C101.855 181.5 101.855 181.5 101.755 181.5C101.655 181.5 101.655 181.4 101.655 181.4C101.855 180.8 102.155 180.1 102.355 179.5Z" fill="#FBECCF"/>
<path d="M101.655 181.4C101.755 181.4 101.855 181.4 101.955 181.4C101.755 181.8 101.555 182.2 101.055 182.4C100.955 181.9 101.255 181.7 101.655 181.4Z" fill="#F6DAA0"/>
<path d="M129.655 84.7C129.555 84.7 129.455 84.6 129.355 84.6C129.355 84.5 129.355 84.4 129.355 84.3C129.755 84.1 130.055 83.2 130.755 84C130.355 84.3 130.055 84.5 129.655 84.7Z" fill="#F6D798"/>
<path d="M119.455 91.8C120.555 91.1 120.855 89.8 121.855 89C122.155 88.5 122.355 87.9 123.155 88.1C123.355 88.2 123.555 88.3 123.755 88.4C122.355 89.5 121.555 91.1 120.055 92.2C119.755 92.3 119.455 92.3 119.455 91.8Z" fill="#EAB554"/>
<path d="M123.155 88C122.755 88.3 122.255 88.6 121.855 88.9C121.755 88.8 121.655 88.6 121.455 88.5C121.855 87.9 122.355 87.5 123.055 87.4C123.255 87.4 123.555 87.3 123.555 87.6C123.555 87.8 123.255 87.9 123.155 88Z" fill="#F6E4C5"/>
<path d="M79.4553 115.3C80.6553 114 81.8553 112.7 83.0553 111.5C83.1553 111.6 83.3553 111.8 83.4553 111.9C82.3553 113.4 81.0553 114.7 79.7553 116C79.2553 116 79.2553 115.7 79.4553 115.3Z" fill="#EFC26E"/>
<path d="M84.7553 111.3C84.6553 111.2 84.5553 111.1 84.4553 111C84.6553 110.7 84.9553 110.5 85.2553 110.1C85.4553 110.7 85.0553 111 84.7553 111.3Z" fill="#F7E6C8"/>
<path d="M89.7553 115.2C89.8553 115.3 90.0553 115.5 90.1553 115.6C89.8553 116 89.6553 116.3 89.1553 116.4C89.2553 116 89.3553 115.6 89.7553 115.2Z" fill="#FBF2E2"/>
<path d="M59.1553 131.3C62.2553 130.1 64.8553 128 67.6553 126.2C68.0553 126 68.3553 126 68.2553 126.6C65.6553 128.9 62.7553 130.9 59.6553 132.3C57.6553 133.2 56.1553 134.2 55.3553 136.3C55.0553 137.1 54.4553 137.7 53.9553 138.4C53.5553 138.6 53.2553 138.7 53.2553 138C53.9553 136.9 54.6553 135.7 55.4553 134.3C51.6553 135.2 48.2553 136.6 44.6553 136.8C44.0553 136.9 43.6553 136.9 43.9553 136.1C47.2553 135.3 50.6553 134.9 53.9553 133.6C55.5553 133 57.3553 132.6 58.7553 131.4C58.9553 131.2 59.0553 131.2 59.1553 131.3Z" fill="#F4C566"/>
<path d="M63.2553 141.2C66.1553 137 68.3553 132.4 70.3553 127.7C70.6553 126.9 71.2553 126.1 71.6553 125.4C72.1553 125.4 72.0553 125.7 71.9553 126.1C70.1553 130.5 68.3553 134.9 65.6553 138.9C65.0553 139.8 64.4553 140.8 63.6553 141.6C63.2553 141.6 63.1553 141.5 63.2553 141.2Z" fill="#F8CC73"/>
<path d="M23.1553 142.8C27.5553 141.9 31.8553 140.7 35.8553 138.5C36.0553 138.4 36.4553 138.4 36.2553 138C36.2553 137.4 36.6553 137.4 37.0553 137.6C37.5553 137.9 37.2553 138.3 37.2553 138.7C33.3553 141.2 29.0553 142.5 24.5553 143.1C23.9553 143.2 23.3553 143.6 23.1553 142.8Z" fill="#F9D07C"/>
<path d="M37.1552 138.7C36.6552 138.8 37.4552 137 36.1552 138C35.5552 138 34.8552 138 34.2552 137.9C34.2552 137.7 33.4552 137.3 34.3552 137.3C34.8552 137.3 35.4552 137.5 35.8552 137.1C36.0552 136.8 36.9552 137.2 36.5552 136.4C36.5552 135.8 36.9552 136 37.2552 136.1C38.8552 137.1 40.4552 136.4 42.0552 136.2C42.6552 136.1 43.3552 135.9 43.9552 136C43.9552 136.5 44.2552 136.6 44.6552 136.7C42.2552 137.5 39.4552 137.2 37.1552 138.7Z" fill="#F4C66A"/>
<path d="M53.3554 137.9C53.4554 138.2 53.7554 138.2 54.0554 138.3C52.5554 141.1 50.3554 143.4 47.7554 145.2C47.3554 145.3 47.2554 145.1 47.3554 144.8C49.5554 142.7 51.7554 140.6 53.3554 137.9Z" fill="#F8CD75"/>
<path d="M74.7553 119.3C75.5553 118.7 76.2553 118 77.0553 117.4C77.3553 117.6 77.3553 117.8 77.3553 118.1C76.8553 118.6 76.4553 119.2 75.9553 119.6C74.4553 120.7 73.6553 122.2 72.9553 123.8C72.7553 123.7 72.5553 123.4 72.4553 123.2C72.3553 123.1 72.3553 123 72.2553 122.9C72.0553 122.7 71.8553 122.6 71.6553 122.4C72.2553 121.4 73.3553 121 74.0553 120.2C74.2553 119.9 74.3553 119.5 74.7553 119.3Z" fill="#F9D896"/>
<path d="M71.7552 122.4C72.0552 122.5 72.7552 121.9 72.7552 122.8C72.5552 123.2 72.2552 123.6 71.7552 123.7C70.6552 124.7 69.5552 125.6 68.4552 126.6C68.3552 126.3 68.0552 126.3 67.8552 126.2C68.8552 124.7 70.2552 123.6 71.7552 122.4Z" fill="#F7D287"/>
<path d="M77.3552 118.1C77.0552 117.9 77.0552 117.7 77.0552 117.4C77.7552 116.6 78.4552 115.8 79.4552 115.3C79.4552 115.6 79.5552 115.8 79.7552 115.9C79.0552 116.7 78.2552 117.5 77.3552 118.1Z" fill="#F7D183"/>
<path d="M72.6553 123.1C72.9553 123.3 72.9553 123.5 72.9553 123.8C72.9553 124.7 72.3553 125.4 71.9553 126.1C71.8553 125.9 71.7553 125.6 71.6553 125.4C71.7553 125 71.8553 124.5 71.9553 124.1C72.1553 123.7 72.1553 123.2 72.6553 123.1Z" fill="#F8D288"/>
<path d="M43.9553 147.6C44.5553 146.8 45.3553 146.2 46.2553 145.7C46.4553 145.8 46.6553 145.9 46.6553 146.1C45.7553 146.7 44.8553 147.4 44.0553 148C43.8553 147.9 43.8553 147.8 43.9553 147.6Z" fill="#FCDFA6"/>
<path d="M63.2552 141.2C63.3552 141.3 63.5552 141.5 63.6552 141.6C63.0552 142.4 62.5552 143.3 61.6552 143.9C61.4552 143.7 61.4552 143.6 61.5552 143.4C62.0552 142.5 62.4552 141.7 63.2552 141.2Z" fill="#FCD689"/>
<path d="M61.5553 143.3C61.5553 143.5 61.5553 143.6 61.6553 143.8C61.2553 144.3 61.0553 145 59.9553 145.4C60.5553 144.5 61.0553 143.9 61.5553 143.3Z" fill="#FDD78E"/>
<path d="M23.1552 142.8C23.4552 143.2 24.0552 143 24.4552 143.1C23.6552 143.6 22.8552 143.3 22.0552 143.3C22.2552 142.8 22.7552 142.9 23.1552 142.8Z" fill="#FAD68C"/>
<path d="M46.6554 146.2C46.5554 146.1 46.3554 145.9 46.2554 145.8C46.5554 145.5 46.9554 145.2 47.2554 144.9C47.3554 145 47.5554 145.2 47.6554 145.3C47.3554 145.6 46.9554 145.9 46.6554 146.2Z" fill="#FAD486"/>
<path d="M72.6552 123.1C72.4552 123.4 72.2552 123.7 71.9552 124.1C71.8552 124 71.7552 123.8 71.5552 123.7C71.7552 123.3 72.1552 123 72.5552 122.8C72.6552 122.9 72.6552 123 72.6552 123.1Z" fill="#FCF0D7"/>
<path d="M42.9552 148.7C42.6552 149.1 42.3552 149.4 41.8552 149.5C41.9552 148.8 42.3552 148.6 42.9552 148.7Z" fill="#F7D795"/>
<path d="M43.9552 147.6C43.9552 147.7 43.9552 147.9 43.9552 148C43.7552 148.3 43.3552 148.6 42.9552 148.6L42.8552 148.5C43.1552 148.1 43.5552 147.8 43.9552 147.6Z" fill="#F6D084"/>
<path d="M74.7554 119.3C74.5554 119.6 74.3554 119.9 74.0554 120.2C73.8554 120.1 73.5554 119.9 73.3554 119.9C70.5554 120.6 68.1554 119.4 65.7554 118.5C59.2554 116.3 52.7554 113.9 45.8554 113.3C45.7554 113.3 45.5554 113.1 45.4554 113.1C45.5554 112.8 45.3554 112.5 45.4554 112.1C50.3554 112.9 55.1554 114.2 59.9554 115.6C63.1554 116.6 66.1554 118 69.3554 118.9C71.1554 119.5 72.9554 119.7 74.7554 119.3Z" fill="#FDE2AF"/>
<path d="M44.1552 122.4C48.0552 123.7 51.7552 125.6 55.2552 127.8C55.8552 128.2 56.3552 128.6 56.8552 129.1C57.0552 129.5 57.0552 129.7 56.5552 129.7C52.7552 127.1 48.6552 125.3 44.4552 123.5C43.9552 123.3 43.3552 123 42.8552 122.8C43.1552 121.9 43.7552 122.3 44.1552 122.4Z" fill="#F4C76C"/>
<path d="M44.1552 122.4C43.7552 122.4 43.2552 122.2 42.9552 122.7C40.5552 122 38.1552 121.3 35.6552 120.7C33.5552 120.2 31.4552 120 29.3552 119.6C29.7552 119.1 30.2552 119.3 30.7552 119.3C35.4552 119.4 39.8552 120.7 44.1552 122.4Z" fill="#FDD481"/>
<path d="M30.5552 133.6C27.0552 132.6 23.5552 131.9 20.0552 131.2C20.1552 130.5 20.5552 130.6 21.0552 130.6C24.6552 130.8 28.0552 131.6 31.3552 133.1C31.2552 133.8 30.9552 133.8 30.5552 133.6Z" fill="#FDD177"/>
<path d="M20.9554 130.7C20.6554 130.9 20.3554 131.1 19.9554 131.3C16.8554 131.2 13.7554 131.1 10.7554 131C14.1554 130 17.5554 129.8 20.9554 130.7Z" fill="#F4CA7A"/>
<path d="M45.5552 112.1C45.7552 112.4 46.7552 112.8 45.5552 113.1C43.9552 112.8 42.3552 112.5 40.7552 112.3C40.6552 112.1 40.5552 111.9 40.3552 111.8C40.2552 112 40.5552 112.1 40.3552 112.2C39.3552 112.2 38.4552 112.1 37.4552 112.1C37.6552 111.3 38.1552 111.9 38.3552 111.7C37.8552 111.3 36.9552 112.1 36.3552 111.4C38.7552 110.9 41.1552 111.2 43.5552 111.7C44.3552 111.9 44.9552 112 45.5552 112.1Z" fill="#FED27A"/>
<path d="M30.5552 133.6C30.8552 133.6 31.1552 133.5 31.2552 133.2C33.5552 133.6 35.4552 134.9 37.3552 136.1C37.1552 136.2 36.8552 136.3 36.6552 136.4C34.5552 135.4 32.5552 134.5 30.5552 133.6Z" fill="#F8D07E"/>
<path d="M30.7553 119.3C30.3553 119.8 29.8553 119.5 29.3553 119.6C27.4553 119.5 25.5553 119.5 23.6553 119.4C23.6553 119.3 23.6553 119.1 23.6553 119C26.0553 118.7 28.3553 118.7 30.7553 119.3Z" fill="#F7CC78"/>
<path d="M36.4553 111.4C37.1553 111.4 37.9553 111.5 39.0553 111.5C38.3553 112 37.7553 111.6 37.4553 112.1C36.6553 112.3 35.8553 112.6 34.9553 112.2C35.2553 111.5 35.8553 111.5 36.4553 111.4Z" fill="#FCD078"/>
<path d="M56.5552 129.7C56.8552 129.6 56.8552 129.4 56.8552 129.1C57.6552 129.8 58.8552 130.1 59.1552 131.3C59.0552 131.3 58.8552 131.3 58.7552 131.3C58.0552 130.8 57.3552 130.2 56.5552 129.7Z" fill="#F7D287"/>
<path d="M40.3553 112.2C40.1553 112 39.8553 111.8 39.6553 111.7C39.9553 111.9 40.9553 111 40.6553 112.3C40.5553 112.3 40.4553 112.2 40.3553 112.2Z" fill="#FCD078"/>
<path d="M35.1552 61.9C37.1552 64.6 38.7552 67.6 40.9552 70.2C44.5552 74.5 48.5552 78.4 53.4552 81.1C53.5552 81.2 53.6552 81.3 53.7552 81.4C53.8552 81.9 54.0552 82.3 53.3552 82.5C52.8552 82.5 52.6552 82.3 52.4552 81.9C44.9552 77.6 39.6552 71.3 35.3552 64C35.0552 63.4 34.7552 62.8 34.3552 62.2C34.4552 61.5 34.7552 61.8 35.1552 61.9Z" fill="#F3C261"/>
<path d="M76.5552 88.3C79.8552 89.4 83.2552 89 86.5552 89.3C86.2552 90.3 85.4552 89.4 84.9552 89.8C85.6552 89.9 86.5552 89.5 87.2552 90C85.3552 90.4 83.3552 90.2 81.4552 90C79.5552 89.8 77.8552 90.3 76.1552 90.6C76.0552 90.5 76.0552 90.3 76.1552 90.2C76.2552 90 76.4552 89.9 76.5552 89.8C76.3552 89.9 76.1552 89.9 75.9552 90C75.5552 90 75.1552 89.9 74.8552 89.7C73.8552 89.5 72.9552 89.4 71.9552 89.2C71.6552 88.9 71.6552 88.6 71.9552 88.3C72.6552 88.1 73.1552 88.9 73.8552 88.6C74.3552 88.6 74.9552 88.5 75.4552 88.4C75.8552 88.2 76.1552 88.5 76.5552 88.3Z" fill="#E8B356"/>
<path d="M53.4553 82.3C53.8553 82 53.3553 81.7 53.4553 81.4C53.6553 81.2 54.0553 81.2 53.7553 80.8L53.8553 80.7C53.7553 80.4 53.8553 80.3 54.1553 80.4C55.6553 83.1 58.6553 83.6 61.1553 84.9C60.8553 85.3 60.4553 85.4 60.1553 85.6C58.1553 85.1 56.3553 84.1 54.4553 83.4C54.0553 82.9 52.9553 83.4 53.4553 82.3Z" fill="#EEBF68"/>
<path d="M53.4552 82.3C53.3552 83 54.1552 82.9 54.3552 83.3C49.8552 82.8 45.3552 82.5 41.2552 80.3C40.7552 80 40.1552 79.8 39.8552 79.3C39.9552 79.1 40.1552 79.1 40.3552 79.2C43.5552 80.7 46.9552 81.7 50.4552 82.1C51.1552 82.2 51.7552 82.6 52.4552 82C52.7552 82.1 53.0552 82.2 53.4552 82.3Z" fill="#F6D084"/>
<path d="M61.8552 92.6C65.1552 92.7 68.3552 92.3 71.5552 91.4C71.8552 91.6 72.0552 91.7 71.8552 92.1C68.1552 93.5 64.3552 93.8 60.5552 92.9C60.8552 92.1 61.3552 92.5 61.8552 92.6Z" fill="#F6CC77"/>
<path d="M60.0552 85.5C60.1552 84.8 60.5552 84.8 61.0552 84.8C63.0552 85.5 65.0552 86.2 67.0552 87C67.1552 87.4 68.8552 86.9 67.6552 88C65.0552 87.7 62.5552 86.6 60.0552 85.5Z" fill="#EAB555"/>
<path d="M67.7553 88C68.2553 87.2 67.2553 87.4 67.1553 87C68.7553 87.4 70.3553 87.8 71.9553 88.1C71.9553 88.4 71.9553 88.7 71.9553 89C70.4553 89 69.0553 88.7 67.7553 88Z" fill="#F0C36A"/>
<path d="M71.8552 92C71.7552 91.8 71.6552 91.5 71.5552 91.3C72.6552 90.9 73.7552 90.5 74.8552 90.1C75.1552 89.8 75.6552 89.8 76.0552 89.6C77.3552 89.9 75.8552 90.3 76.0552 90.6C74.7552 91.3 73.3552 91.8 71.8552 92Z" fill="#EEBE64"/>
<path d="M87.2552 90C86.3552 90 85.4552 89.9 84.3552 89.9C85.2552 89.3 86.0552 89.9 86.5552 89.3C86.9552 89.3 87.3552 89.3 87.7552 89.3C88.7552 89.4 89.8552 88.8 90.7552 89.8C89.5552 90.2 88.3552 89.9 87.2552 90Z" fill="#E2A849"/>
<path d="M90.6553 89.8C89.7553 89.1 88.6553 89.8 87.6553 89.3C89.3553 89.2 90.9553 89.1 92.6553 88.9C92.8553 89.1 93.2553 88.9 93.3553 89.2C92.5553 89.6 91.6553 89.8 90.6553 89.8Z" fill="#E9B866"/>
<path d="M40.3554 79.2C40.1554 79.2 40.0554 79.2 39.8554 79.3C38.8554 79.1 38.1554 78.4 37.3554 77.9C37.2554 77.6 37.3554 77.4 37.7554 77.6C38.6554 78.1 39.4554 78.6 40.3554 79.2Z" fill="#F4D089"/>
<path d="M93.3553 89.3C93.1553 89.2 92.8553 89.1 92.6553 89C93.2553 88.9 93.9553 88.8 94.5553 88.7C94.8553 88.7 95.0553 88.8 95.2553 89.1C94.7553 89.4 94.0553 89.2 93.3553 89.3Z" fill="#EBB95D"/>
<path d="M61.8553 92.6C61.4553 92.7 60.9553 92.4 60.5553 92.9C60.2553 92.8 59.6553 92.6 60.4553 92.3C60.8553 92.2 61.4553 92.2 61.8553 92.6Z" fill="#FAD690"/>
<path d="M76.0552 89.6C75.7552 90.1 75.3552 90.1 74.8552 90.1C74.8552 89.9 74.8552 89.7 74.8552 89.5C75.2552 89.6 75.6552 89.6 76.0552 89.6Z" fill="#FAF1DF"/>
<path d="M37.7553 77.5C37.6553 77.6 37.5553 77.7 37.3553 77.8C37.0553 77.7 36.6553 77.4 36.8553 77.1C37.2553 76.8 37.4553 77.3 37.7553 77.5Z" fill="#F8E1B5"/>
<path d="M43.9553 48.6C44.5553 48.4 44.6553 47.8 44.6553 47.3C45.9553 51.3 47.6553 55.1 49.6553 58.7C50.1553 59.5 50.6553 60.4 51.2553 61.1C52.1553 62 52.0553 62.7 50.7553 62.8C49.2553 63 49.5553 63.7 50.1553 64.6C50.5553 65.3 51.2553 65.8 51.4553 66.6C51.3553 67 51.7553 67.4 51.3553 67.7C50.4553 66.7 49.5553 65.6 48.9553 64.3C48.1553 62.7 48.2553 62.5 50.0553 62.1C50.2553 62.1 50.4553 62 50.8553 62C47.6553 57.9 45.8553 53.2 43.9553 48.6Z" fill="#FED278"/>
<path d="M51.3554 67.7C51.5554 67.4 51.0554 66.9 51.4554 66.6C54.9554 71.5 60.0554 74.2 65.2554 76.8C65.4554 77.2 65.4554 77.5 64.8554 77.5C59.8554 75.4 55.2554 72.9 51.8554 68.6C51.6554 68.4 51.3554 68.1 51.3554 67.7Z" fill="#F9CC72"/>
<path d="M64.8552 77.5C65.1552 77.4 65.2552 77.1 65.2552 76.8C68.4552 77.9 71.4552 79.6 74.7552 80.5C76.9552 81.1 79.2552 81.7 81.5552 82.2C81.7552 82.6 82.5552 82.1 82.5552 82.8C82.4552 82.9 82.3552 83 82.1552 83C81.6552 82.9 81.0552 83.1 80.5552 82.8C80.0552 82.3 79.4552 82.8 78.9552 82.4C73.9552 81.7 69.3552 79.8 64.8552 77.5Z" fill="#FED37E"/>
<path d="M92.5553 82.7C92.8553 82.7 93.1553 82.7 93.5553 82.7C93.7553 82.9 93.5553 83.2 93.5553 83.4C92.4553 83.9 91.3553 83.4 90.0553 83.7C91.8553 85 93.8553 85.7 95.7553 86.6C95.1553 86.8 94.3553 86.3 93.7553 86.9C91.7553 86.1 89.7553 85.1 87.9553 83.8C86.3553 83.3 84.6553 83.8 83.0553 83.3C82.8553 83.3 82.6553 83.3 82.4553 83.2C82.2553 83.1 82.3553 83 82.4553 82.9C83.1553 82 83.9553 82.9 84.7553 82.6C84.9553 82.6 85.1553 82.6 85.3553 82.6C87.0553 82.5 88.7553 82.6 90.4553 82.6C91.2553 82.9 91.9553 83.2 92.5553 82.7Z" fill="#FDD076"/>
<path d="M44.4552 62.5C45.4552 63.3 45.9552 64.5 46.4552 65.5C47.6552 67.9 49.2552 70.1 50.1552 72.7C50.0552 72.9 50.1552 73.2 49.8552 73.4C47.9552 70 46.0552 66.5 44.0552 63.1C43.8552 62.8 43.8552 62.5 44.4552 62.5Z" fill="#F5C86D"/>
<path d="M69.5552 84.1C66.9552 82.1 64.2552 80.3 61.5552 78.5C64.6552 79.7 67.4552 81.2 69.8552 83.5C69.8552 83.8 69.7552 84 69.5552 84.1Z" fill="#FDD685"/>
<path d="M44.4552 62.5C44.1552 62.6 44.1552 62.9 44.0552 63.2C42.8552 61.3 41.5552 59.4 40.3552 57.6C40.5552 57.3 40.7552 57.1 41.0552 57.3C42.4552 58.8 43.7552 60.5 44.4552 62.5Z" fill="#FDD27D"/>
<path d="M34.4552 51.1C36.2552 51.9 37.4552 53.5 38.8552 54.8C39.0552 55.2 39.0552 55.5 38.4552 55.5C36.9552 54.1 35.5552 52.8 34.0552 51.4C34.0552 51.2 34.1552 51 34.4552 51.1Z" fill="#FCD27E"/>
<path d="M49.8552 73.5C49.9552 73.3 50.0552 73 50.1552 72.8C51.1552 74 51.8552 75.3 52.3552 76.7C52.1552 76.9 51.8552 76.9 51.6552 76.7C51.0552 75.6 50.4552 74.6 49.8552 73.5Z" fill="#F0C166"/>
<path d="M51.6553 76.7C51.8553 76.7 52.1553 76.7 52.3553 76.7C52.9553 77.9 53.5553 79.1 54.1553 80.3C54.0553 80.4 53.9553 80.5 53.8553 80.6C52.8553 79.5 52.3553 78 51.6553 76.7Z" fill="#EDBE68"/>
<path d="M69.5552 84.1C69.5552 83.9 69.6552 83.6 69.8552 83.5C70.7552 84.2 71.7552 84.9 72.4552 85.8C72.3552 86 72.2552 86.2 72.0552 86.2C71.0552 85.7 70.3552 84.9 69.5552 84.1Z" fill="#F1C775"/>
<path d="M38.4553 55.6C38.7553 55.5 38.8553 55.2 38.8553 54.9C39.7553 55.5 40.4553 56.4 41.0553 57.2C40.8553 57.3 40.5553 57.4 40.3553 57.5C39.7553 56.9 39.0553 56.2 38.4553 55.6Z" fill="#FED98D"/>
<path d="M76.5552 88.3C76.4552 88.9 76.1552 88.7 75.8552 88.5C75.5552 88.3 75.1552 88.3 74.9552 87.9C74.4552 87.6 73.8552 87.2 73.3552 86.9C73.3552 86.7 73.6552 86.6 73.7552 86.5C74.6552 87.2 75.5552 87.7 76.5552 88.3Z" fill="#EBBE6D"/>
<path d="M83.1553 83.4C84.7553 83.6 86.4553 83.1 88.0553 83.9C86.3553 83.6 84.7553 84 83.1553 83.4Z" fill="#FEDB96"/>
<path d="M73.6552 86.6C73.5552 86.7 73.3552 86.8 73.2552 87C72.7552 86.9 72.3552 86.7 72.0552 86.3C72.1552 86.2 72.3552 86 72.4552 85.9C72.8552 86.1 73.2552 86.3 73.6552 86.6Z" fill="#E6AF4E"/>
<path d="M74.8552 87.9C75.2552 88 75.5552 88.2 75.7552 88.5C75.1552 88.5 74.4552 88.4 73.8552 88.4C74.2552 88.3 74.5552 88.1 74.8552 87.9Z" fill="#F6E2BD"/>
<path d="M82.5552 83C82.5552 83.1 82.5552 83.2 82.5552 83.3C81.8552 83.2 81.1552 83.5 80.5552 82.9C81.2552 83 81.8552 83 82.5552 83Z" fill="#FEDB96"/>
<path d="M78.9553 82.6C79.5553 82.7 80.1553 82.4 80.5553 83C80.0553 82.9 79.4553 83 78.9553 82.6Z" fill="#FEDB96"/>
<path d="M34.4554 51.1C34.3554 51.2 34.1554 51.3 34.0554 51.5C33.7554 51.3 33.5554 51.2 33.2554 51C33.8554 50.7 34.1554 50.8 34.4554 51.1Z" fill="#FBDA95"/>
<path d="M53.7552 80.7C54.0552 80.8 54.2552 81.2 54.1552 81.4C53.9552 81.8 53.6552 81.3 53.3552 81.3C53.3552 81.2 53.3552 81.1 53.3552 81C53.5552 80.9 53.6552 80.8 53.7552 80.7Z" fill="#F7E5C3"/>
<path d="M93.5552 83.4C93.1552 83.2 93.4552 82.9 93.5552 82.7C95.1552 82.4 96.7552 82.6 98.4552 82.6C98.4552 82.9 97.7552 82.8 98.1552 83.3C96.6552 83.7 95.0552 83.4 93.5552 83.4Z" fill="#F8CC76"/>
<path d="M103.255 83.1C103.755 82.6 104.355 82.9 104.955 82.9C104.455 83.2 103.855 83.1 103.255 83.1Z" fill="#EBBC66"/>
<path d="M100.655 83.3C101.155 82.9 101.755 83.1 102.355 83.1C101.855 83.4 101.255 83.3 100.655 83.3Z" fill="#F8CC76"/>
<path d="M60.4553 60.1C58.2553 57 56.0553 53.9 54.1553 50.6C53.2553 49 52.9553 47.1 51.1553 46.2C50.9553 45.8 51.2553 45.7 51.4553 45.5C50.9553 43.1 49.5553 40.9 48.8553 38.6C48.6553 38.1 48.6553 37.6 48.4553 37C48.6553 36.6 48.7553 36.2 49.1553 36C52.1553 44.4 55.7553 52.5 61.5553 59.4C61.7553 59.6 61.7553 59.9 61.9553 60.1C62.1553 60.5 62.2553 60.9 61.7553 61.2C60.9553 61.4 60.5553 60.9 60.4553 60.1Z" fill="#FED073"/>
<path d="M43.7554 15.9C44.1554 16.1 44.0554 17 44.7554 16.9C45.8554 19.7 45.8554 22.7 46.6554 25.6C47.0554 27.2 47.7554 28.8 47.7554 30.6C47.4554 30.7 47.0554 30.7 46.7554 30.9C45.4554 26 44.3554 21 43.7554 15.9Z" fill="#FDD178"/>
<path d="M61.5552 61.2C62.0552 61 61.9552 60.5 62.0552 60.2C64.1552 62.5 66.1552 64.7 68.2552 67C68.3552 67.5 68.0552 67.8 67.5552 67.6C66.6552 67.3 66.1552 66.5 65.5552 65.8C63.8552 63.5 61.2552 62.4 59.0552 60.8C59.2552 60.5 59.4552 60.5 59.7552 60.5C59.8552 60.5 59.9552 60.5 60.0552 60.5C60.6552 60.6 60.9552 61.2 61.5552 61.2Z" fill="#FDDA93"/>
<path d="M82.6553 77.5C78.8553 76.3 75.6552 74.2 72.5552 71.9C72.6552 71.5 72.1552 71 72.5552 70.6C75.9552 72.9 79.3552 75.1 83.0552 76.8C83.2552 77.2 83.0553 77.4 82.6553 77.5Z" fill="#FEE4B1"/>
<path d="M103.155 82.4C99.6552 81.8 96.1552 81.1 92.7552 80.5C91.6552 80.3 90.5552 80.2 89.5552 79.7C89.4552 79.4 89.6552 79.2 89.8552 79.1C94.1552 80 98.4552 80.9 102.755 81.8C102.955 81.8 103.155 81.8 103.255 81.5C103.555 81.6 103.955 81.7 104.255 81.9C104.455 83.2 103.455 82.2 103.155 82.4Z" fill="#F6CC77"/>
<path d="M72.6553 70.7C72.2553 71.1 73.7553 71.6 72.6553 72C71.8553 71.5 71.1553 70.8 70.1553 71C69.7553 71.1 69.7553 71 69.8553 70.7C70.7553 70.4 70.0553 70.1 69.8553 69.9C68.9553 69.3 68.2553 68.6 67.6553 67.7C67.9553 67.6 68.2553 67.4 68.3553 67.1C69.6553 68.2 71.1553 69.4 72.6553 70.7Z" fill="#FDDEA1"/>
<path d="M46.8552 30.9C46.8552 29.7 47.3552 30.2 47.8552 30.6C48.3552 32.4 48.8552 34.3 49.3552 36.1C49.3552 36.6 49.3552 37.1 48.6552 37.1C47.5552 35.2 47.3552 33 46.8552 30.9Z" fill="#F5C76C"/>
<path d="M82.6553 77.5C82.7553 77.3 82.9553 77 83.0553 76.8C84.2553 77.7 85.9553 77.5 87.2553 78.3C87.3553 78.7 87.9553 78.7 87.8553 79.2C86.0553 78.9 84.3553 78.4 82.6553 77.5Z" fill="#FDDEA1"/>
<path d="M87.8552 79.3C87.6552 79 87.1553 78.9 87.2553 78.4C88.0553 78.9 89.0553 78.5 89.7553 79.1C89.6553 79.3 89.5552 79.5 89.4552 79.7C88.8552 79.8 88.3552 79.4 87.8552 79.3Z" fill="#FAD17C"/>
<path d="M75.0552 56.2C75.6552 56.3 76.0552 56.5 75.6552 57.2C75.4552 56.8 75.2552 56.5 75.0552 56.2Z" fill="#EBB95D"/>
<path d="M114.555 67.9C115.955 69 117.455 70.2 118.855 71.3C118.655 71.5 118.455 71.6 118.255 71.6C114.655 70.2 110.955 69.2 107.355 67.6C107.055 67.5 106.755 67.4 106.555 66.9C109.455 67.4 111.955 68.9 114.955 69.4C114.655 68.9 114.355 68.5 114.155 68.1C114.055 68 114.155 67.8 114.555 67.9Z" fill="#FEDF9F"/>
<path d="M118.155 71.7C118.255 71.4 118.555 71.4 118.755 71.4C119.355 72 120.055 72.1 120.855 72.4C120.655 72 120.555 71.7 120.355 71.5C120.155 71.3 120.155 71 120.355 70.8C121.955 74.2 125.555 74 128.355 75.3C128.655 75.4 128.955 75.5 129.255 75.6C128.855 75.7 128.455 75.5 128.255 75.9C124.855 74.8 121.255 73.9 118.155 71.7Z" fill="#FDD78A"/>
<path d="M108.955 59.7C109.455 60.9 109.355 62.4 110.455 63.4C110.655 63.8 110.655 64.1 110.055 64C108.555 62.1 106.055 62 104.255 60.6C103.455 60 102.355 59.8 101.855 58.9C103.655 59.5 105.255 60.5 106.955 61.4C107.755 61.8 107.855 61.6 107.655 60.8C107.455 60.5 107.455 60.3 107.755 60C108.055 60 108.155 60.8 108.655 60.4C108.755 60.1 108.655 59.8 108.955 59.7Z" fill="#FEDC99"/>
<path d="M110.055 63.9C110.355 63.8 110.355 63.6 110.455 63.3C111.855 64.8 113.155 66.4 114.555 67.9C114.455 68 114.355 68.1 114.155 68.2C112.255 67.3 111.255 65.5 110.055 63.9Z" fill="#FEE1A8"/>
<path d="M99.6553 48.6C100.755 49.8 101.555 51.2 102.455 52.6C102.555 52.9 102.355 53 102.055 53C100.655 51.8 99.9553 50.1 98.9553 48.7C99.1553 48.4 99.3553 48.5 99.6553 48.6Z" fill="#F4C771"/>
<path d="M107.655 59.9C107.655 60.2 107.555 60.4 107.555 60.7C106.255 59.5 105.355 57.9 104.455 56.4C104.355 56.1 104.455 56 104.755 55.9C104.955 55.9 105.055 56 105.155 56.1C105.955 57.3 106.855 58.6 107.655 59.9Z" fill="#FCD381"/>
<path d="M99.6553 48.6C99.4553 48.6 99.1553 48.6 98.9553 48.6C97.8553 47.7 97.3553 46.3 96.4553 45.3C96.3553 45.1 96.2553 44.8 96.1553 44.6C96.2553 44.5 96.3553 44.4 96.5553 44.3C97.5553 45.7 98.6553 47.2 99.6553 48.6Z" fill="#EBBD6D"/>
<path d="M104.855 55.9C104.755 56 104.555 56.2 104.455 56.3C103.555 55.2 102.555 54.3 102.055 52.9C102.155 52.8 102.355 52.7 102.455 52.5C103.155 53.1 103.455 54.1 104.255 54.6C104.755 54.9 105.055 55.3 104.855 55.9Z" fill="#FAD486"/>
<path d="M101.855 58.8C101.255 58.8 100.955 58.5 100.655 57.9C101.355 57.9 101.655 58.2 101.855 58.8Z" fill="#FEE3AD"/>
<path d="M59.7552 60.5C59.5552 60.8 59.3552 60.8 59.0552 60.8C52.9552 56.7 47.4552 51.9 44.8552 44.6C48.3552 51.3 53.6552 56.2 59.7552 60.5Z" fill="#FDD27C"/>
<path d="M56.8552 68.1C59.9552 69 62.9552 70 66.1552 70.4C66.3552 70.8 67.2552 70.2 67.0552 71.1C63.1552 71 59.4552 70.1 56.0552 68.1C56.3552 67.9 56.6552 68 56.8552 68.1Z" fill="#FED684"/>
<path d="M51.4553 45.6C51.3553 45.8 51.2553 46 51.1553 46.3C50.2553 45.7 49.5553 44.8 48.9553 44C49.0553 43.8 49.1553 43.6 49.3553 43.6C50.1553 44.1 50.5553 45.1 51.4553 45.6Z" fill="#FDDA92"/>
<path d="M67.0553 71.1C66.7553 70.9 66.4553 70.7 66.1553 70.4C67.3553 70.4 68.5553 70.5 69.7553 70.5C69.8553 70.6 69.9553 70.7 70.0553 70.8C69.0553 71.4 68.0553 71.1 67.0553 71.1Z" fill="#FEE1A5"/>
<path d="M90.9553 83C89.1553 82.8 87.2553 83.2 85.4553 82.8C87.2553 82.4 89.1553 82.6 90.9553 82.7C91.0553 82.8 91.0553 82.9 90.9553 83Z" fill="#FEDB96"/>
<path d="M49.3554 43.5C49.2554 43.6 49.0554 43.8 48.9554 43.9C48.4554 43.3 47.8554 42.7 47.7554 41.9C47.8554 41.7 47.9554 41.6 48.1554 41.5C48.5554 42.2 48.9554 42.9 49.3554 43.5Z" fill="#F8D283"/>
<path d="M48.0553 41.6C47.9553 41.7 47.7553 41.8 47.6553 42C47.1553 41.3 46.6553 40.6 47.0553 39.5C47.3553 40.2 47.7553 40.9 48.0553 41.6Z" fill="#F6CD7F"/>
<path d="M84.8553 82.7C84.1553 83.4 83.2553 82.4 82.5553 83C82.2553 82.8 81.9553 82.5 81.6553 82.3C82.6553 82.4 83.7553 82.3 84.8553 82.7Z" fill="#FEDB96"/>
<path d="M90.9553 83C90.9553 82.9 90.9553 82.8 90.9553 82.7C91.4553 82.7 92.0553 82.7 92.5553 82.7C92.1553 83.4 91.6553 83.6 90.9553 83Z" fill="#F8CC76"/>
<path d="M61.5552 61.2C60.7552 61.6 60.5552 60.7 60.0552 60.5C60.1552 60.4 60.3552 60.3 60.4552 60.1C60.7552 60.5 61.1552 60.9 61.5552 61.2Z" fill="#FEF5E2"/>
<path d="M56.8554 68.1C56.5554 68.1 56.3554 68.1 56.0554 68.1C55.7554 68 55.3554 68 55.4554 67.6C55.5554 67.3 55.8554 67.4 56.1554 67.6C56.3554 67.8 56.6554 68 56.8554 68.1Z" fill="#FEDF9F"/>
<path d="M116.455 59.3C115.255 56.6 114.455 53.8 112.655 51.4C115.555 53.2 115.955 56.5 117.155 59.3C116.855 59.5 116.655 59.5 116.455 59.3Z" fill="#F4CA77"/>
<path d="M120.555 70.7C120.555 70.9 120.555 71.2 120.555 71.4C119.455 69 118.555 66.5 117.855 63.9C118.255 63.6 118.255 64.2 118.555 64.2C119.355 66.3 120.255 68.4 120.555 70.7Z" fill="#FEE4B0"/>
<path d="M108.955 59.7C108.955 60 108.855 60.2 108.655 60.3C108.055 59 107.755 57.5 107.455 56.1C107.455 55.8 107.555 55.5 107.855 55.4C108.455 56.7 108.855 58.2 108.955 59.7Z" fill="#FBD68A"/>
<path d="M106.255 53.1C105.655 52 105.055 50.9 104.455 49.8C104.655 49.6 104.855 49.6 105.055 49.8C105.755 50.6 106.155 51.5 106.555 52.4C106.755 52.8 106.855 53.1 106.255 53.1Z" fill="#F5CC7D"/>
<path d="M116.455 59.3C116.655 59.3 116.855 59.3 117.055 59.3C117.355 60.3 117.655 61.2 117.955 62.2C118.155 62.4 118.155 62.7 117.855 62.9C117.555 63 117.355 62.8 117.255 62.6C117.155 61.4 116.355 60.5 116.455 59.3Z" fill="#FAD58C"/>
<path d="M106.255 53.1C106.555 53 106.555 52.7 106.655 52.4C107.255 53.3 107.755 54.2 107.855 55.3C107.855 55.6 107.755 55.9 107.455 56C107.055 55.1 106.655 54.1 106.255 53.1Z" fill="#F8CF7D"/>
<path d="M117.255 62.5C117.655 62.8 117.855 62.6 117.855 62.2C118.255 62.8 118.455 63.5 118.455 64.2C118.055 64.6 118.055 63.8 117.755 63.9C117.455 63.5 117.255 63.1 117.255 62.5Z" fill="#FCDEA0"/>
<path d="M104.055 49.2C103.755 48.8 103.155 48.6 103.355 47.9C104.055 47.8 104.255 48.4 104.455 48.8C104.455 49 104.255 49.2 104.055 49.2Z" fill="#F1CA82"/>
<path d="M104.055 49.2C104.155 49.1 104.355 48.9 104.455 48.8C104.755 49.1 104.955 49.4 105.055 49.8C104.855 49.8 104.655 49.8 104.455 49.8C104.355 49.6 104.155 49.4 104.055 49.2Z" fill="#F1C674"/>
<path d="M106.755 147.6C108.655 145.1 107.655 142.3 107.255 139.7C107.155 139.2 107.155 138.8 107.155 138.3C107.555 138.1 107.755 138.7 108.155 138.6C108.455 140.2 108.755 141.7 108.855 143.3C108.955 144.6 109.355 145.8 110.055 146.9C110.155 147.7 109.155 146.9 109.155 147.5C109.455 149.1 109.455 150.6 109.355 152.2C109.455 152.6 109.655 153.1 109.155 153.2C108.755 153.3 108.855 152.8 108.655 152.6C108.055 150.8 108.755 148.9 108.055 147C107.755 147.5 107.555 148 107.255 148.4C106.755 148.2 106.955 147.8 106.755 147.6Z" fill="#ECB859"/>
<path d="M108.055 138.6C107.255 140.1 107.555 138.1 107.055 138.3C106.555 133.6 105.955 128.9 106.155 124.1C106.155 123.7 106.055 123.4 105.955 123C106.155 122.7 106.255 122.2 106.855 122.4C106.955 127.8 107.755 133.2 108.055 138.6Z" fill="#E8B253"/>
<path d="M106.255 118.4C104.855 119.3 104.055 120.8 102.855 122C102.555 121.8 102.755 121.5 102.555 121.3C103.155 119.8 104.455 118.9 105.655 118C106.155 117.6 106.755 117.3 106.855 116.6C107.055 114.6 107.655 112.7 108.455 110.8C108.655 110.7 108.755 110.7 108.855 110.9C108.855 111.3 108.955 111.8 108.755 112.2C108.355 114.1 107.955 115.9 107.555 117.8C107.655 118.1 107.655 118.3 107.455 118.5C106.955 119.4 106.655 118.3 106.255 118.4Z" fill="#ECB95D"/>
<path d="M127.755 120.9C124.655 115.7 120.455 111.7 115.555 108.2C115.555 108 115.755 107.9 115.955 107.9C121.055 111.4 125.355 115.5 128.355 121C128.155 121.1 127.955 121.1 127.755 120.9Z" fill="#FCE4B1"/>
<path d="M124.255 139.5C125.855 143.8 127.255 148.2 125.755 152.9C125.955 148.6 125.255 144.5 123.955 140.4C124.055 140.2 123.855 139.7 124.255 139.5Z" fill="#FED788"/>
<path d="M108.555 152.6C108.755 152.7 108.855 153.1 109.055 152.9C109.155 152.8 109.155 152.4 109.155 152.2C109.655 155.6 109.855 159 109.155 162.3C108.955 162.2 108.755 162.1 108.455 161.9C108.555 158.8 108.555 155.7 108.555 152.6Z" fill="#F2C46A"/>
<path d="M111.055 120.2C113.955 122.2 116.255 124.7 118.255 127.6C118.455 127.9 118.455 128.1 118.155 128.3C115.755 125.6 113.455 122.8 110.655 120.5C110.555 120.3 110.655 120.1 111.055 120.2Z" fill="#F7D081"/>
<path d="M127.755 120.9C127.955 120.9 128.155 120.9 128.355 120.9C130.155 124.1 131.055 127.6 131.855 131.1C131.655 131.3 131.455 131.3 131.255 131.1C130.455 127.5 129.155 124.2 127.755 120.9Z" fill="#FEE1A9"/>
<path d="M111.955 102.5C112.955 100.1 114.455 98.1 115.955 96.1C116.255 96.3 116.355 96.5 116.355 96.8C115.055 98.8 113.855 100.8 112.555 102.8C112.355 102.9 112.155 102.7 111.955 102.5Z" fill="#FDE2AC"/>
<path d="M111.955 102.5C112.255 102.5 112.455 102.6 112.555 102.9C112.555 103 112.555 103.1 112.555 103.2C112.555 104 111.255 104.5 111.755 105.2C112.155 105.8 113.055 106 113.755 106.4C113.755 106.6 113.555 106.6 113.355 106.7C113.155 106.6 112.955 106.5 112.755 106.4C111.655 105.5 110.855 105.7 110.555 107.2C110.455 107.5 110.255 107.7 110.055 108C109.755 108 109.555 107.8 109.455 107.6C109.355 106.9 110.155 106.6 110.155 106C110.455 105.7 109.855 105.3 110.155 105C110.955 104.3 111.355 103.3 111.955 102.5Z" fill="#F6D69B"/>
<path d="M124.255 139.5C124.255 139.8 124.255 140.2 123.955 140.4C122.855 137.9 121.755 135.4 120.655 132.8C120.755 132.6 120.755 132.4 121.055 132.4C122.155 134.8 123.455 137 124.255 139.5Z" fill="#F9D284"/>
<path d="M109.055 147.5C108.055 145.4 110.255 148 109.955 146.9C111.655 148.2 111.955 150.4 113.455 151.8C113.455 152.4 113.155 152.4 112.755 152.2C111.855 150.9 110.955 149.6 110.055 148.2C109.755 147.7 109.655 147.3 109.055 147.5Z" fill="#F1C166"/>
<path d="M106.255 118.4C106.755 117.8 107.055 119.1 107.555 118.5C107.355 119.8 107.255 121.1 107.055 122.4C106.755 122.6 106.455 122.8 106.155 123C105.855 121.5 106.755 120 106.255 118.4Z" fill="#EBBA66"/>
<path d="M112.755 152.1C113.055 152.1 113.355 152 113.455 151.7C114.255 153.1 115.055 154.6 115.855 156C116.055 156.4 116.055 156.7 115.455 156.7C114.555 155.2 113.655 153.6 112.755 152.1Z" fill="#F8CB73"/>
<path d="M131.355 131C131.555 131 131.755 131 131.955 131C132.655 132.6 132.755 134.3 132.755 136C131.855 134.5 131.755 132.7 131.355 131Z" fill="#F8D99B"/>
<path d="M116.355 96.8C116.055 96.6 116.055 96.3 115.955 96.1C116.555 95.1 117.155 94.1 118.055 93.3C118.455 93.6 118.355 94 118.355 94.3C117.655 95.1 117.255 96.2 116.355 96.8Z" fill="#FCDC9C"/>
<path d="M109.555 107.6C109.855 107.6 110.055 107.7 110.155 108C109.955 109 109.555 110 109.155 110.9C109.055 110.8 108.955 110.8 108.755 110.8C108.655 110.8 108.555 110.8 108.455 110.8C108.255 109.6 109.255 108.7 109.555 107.6Z" fill="#F2CB81"/>
<path d="M117.055 159C117.655 160.3 118.055 161.6 117.655 163C117.355 161.8 116.955 160.6 116.655 159.4C116.755 159.1 116.855 159 117.055 159Z" fill="#FED687"/>
<path d="M117.055 159C116.955 159.1 116.755 159.3 116.655 159.4C116.155 158.6 115.755 157.7 115.455 156.8C115.755 156.7 115.855 156.4 115.855 156.1C116.355 157 117.055 157.8 117.055 159Z" fill="#FDD37E"/>
<path d="M118.355 94.3C117.955 94 118.055 93.6 118.055 93.3C118.455 92.7 118.755 92.1 119.455 91.8C119.655 91.9 119.855 92 120.055 92.1C119.555 92.9 118.955 93.6 118.355 94.3Z" fill="#F6CB76"/>
<path d="M120.955 132.5C120.855 132.6 120.755 132.8 120.555 132.9C120.155 132.1 119.655 131.2 119.255 130.4C119.155 130.1 119.355 130 119.655 130C120.255 130.8 120.755 131.6 120.955 132.5Z" fill="#F6D184"/>
<path d="M111.055 120.2C110.955 120.3 110.855 120.4 110.655 120.5C109.955 119.9 109.155 119.4 108.455 118.8C108.455 118.6 108.655 118.6 108.855 118.5C109.555 119 110.455 119.5 111.055 120.2Z" fill="#F8DCA6"/>
<path d="M113.455 106.7C113.555 106.6 113.655 106.5 113.855 106.4C114.655 106.7 115.355 107.2 116.055 107.8C115.955 107.9 115.855 108 115.655 108.1C114.855 107.7 114.155 107.2 113.455 106.7Z" fill="#F6D493"/>
<path d="M119.655 130C119.555 130.1 119.355 130.3 119.255 130.4C118.755 129.8 118.255 129.2 118.055 128.4C118.055 128.2 118.055 127.9 118.155 127.7C118.655 128.4 119.155 129.2 119.655 130Z" fill="#F7D692"/>
<path d="M108.755 118.6C108.655 118.7 108.555 118.8 108.355 118.9C108.055 118.8 107.755 118.7 107.455 118.5C107.455 118.3 107.455 118 107.555 117.8C107.955 118.1 108.355 118.3 108.755 118.6Z" fill="#EFC370"/>
<path d="M108.755 110.8C108.955 110.5 109.055 110.7 109.155 110.9C109.055 111.3 109.155 111.8 108.755 112.2C108.755 111.7 108.755 111.3 108.755 110.8Z" fill="#EFC36F"/>
<path d="M99.1553 127.7C98.1553 129.9 97.0553 132.2 96.0553 134.4C95.4553 134.4 95.4553 134.1 95.6553 133.7C96.6553 131.4 97.0552 128.9 98.8552 127C98.9552 127.1 99.0553 127.4 99.1553 127.7Z" fill="#E9B65B"/>
<path d="M99.1554 127.7C98.8554 127.6 98.7554 127.3 98.7554 127C99.5554 124.8 101.055 123.1 102.555 121.3C102.855 121.5 102.855 121.7 102.855 122C101.655 123.9 100.355 125.8 99.1554 127.7Z" fill="#E2A84D"/>
<path d="M105.655 152.1C105.255 153.4 104.955 154.7 104.555 156C104.155 156.6 104.555 157.4 104.155 158V158.1V158.2C103.055 158.4 103.455 157.7 103.555 157.2C104.055 156.5 103.555 155.6 103.955 154.9C104.555 153.7 104.055 152.2 105.055 151.1C105.455 151.3 105.455 151.7 105.655 152.1Z" fill="#E6B35D"/>
<path d="M110.255 105C110.355 105.3 110.755 105.7 110.255 106C108.555 106.1 107.355 107.3 105.955 108.1C105.555 108.3 105.255 108.8 104.755 108.7C104.455 108.9 104.255 108.9 104.055 108.6C105.755 107 107.955 105.9 110.255 105Z" fill="#FBE2B2"/>
<path d="M105.655 152.1C105.255 151.9 105.055 151.6 105.055 151.1C105.555 149.9 105.955 148.6 106.755 147.6C107.055 147.8 107.055 148.1 107.155 148.4C106.655 149.6 106.155 150.9 105.655 152.1Z" fill="#E5B15B"/>
<path d="M103.455 157.2C103.455 157.6 103.455 158.2 104.055 158.2C104.055 159.3 103.955 160.4 103.955 161.5C102.655 160.2 103.055 158.7 103.455 157.2Z" fill="#F0C46D"/>
<path d="M99.6554 113.1C98.7554 114.2 97.9554 115.5 96.7554 116.4C97.3554 115 98.0553 113.6 99.3553 112.7C99.5553 112.6 99.7554 112.7 99.6554 113.1Z" fill="#F2C772"/>
<path d="M95.6554 133.6C95.6554 133.9 95.7554 134.2 96.0554 134.3C95.6554 135.6 95.2553 136.8 94.8553 138.1C94.6553 138.3 94.4554 138.3 94.2554 138.1C94.6554 136.6 94.8554 135 95.6554 133.6Z" fill="#EEC578"/>
<path d="M99.6554 113.1C99.5554 113 99.4554 112.8 99.2554 112.7C99.6554 111.7 100.455 111.1 101.355 110.5C101.755 110.3 102.055 110.3 102.055 110.9C101.155 111.6 100.455 112.4 99.6554 113.1Z" fill="#FBD383"/>
<path d="M101.955 110.9C101.855 110.6 101.555 110.5 101.255 110.5C102.055 109.8 102.855 109 103.855 108.6C104.055 108.6 104.355 108.6 104.555 108.7C103.955 109.7 102.855 110.1 101.955 110.9Z" fill="#FEE3AE"/>
<path d="M94.1553 138.1C94.3553 138.1 94.5553 138.1 94.7553 138.1C94.3553 139.4 93.9553 140.6 93.4553 142.3C93.2553 140.6 93.8553 139.4 94.1553 138.1Z" fill="#F3D08D"/>
<path d="M103.855 154.9C103.755 155.7 104.155 156.6 103.455 157.2C103.555 156.4 103.355 155.6 103.855 154.9Z" fill="#EFC168"/>
<path d="M104.155 158C104.255 157.3 103.955 156.6 104.555 156C104.455 156.6 104.555 157.4 104.155 158Z" fill="#EFC168"/>
</svg>
