<svg width="110" height="28" viewBox="0 0 110 28" fill="none" xmlns="http://www.w3.org/2000/svg">
<path opacity="0.6" d="M57.9034 2.71428C58.1967 2.71428 58.4721 2.7532 58.7295 2.83102C58.9929 2.90286 59.2234 3.0166 59.421 3.17224C59.6185 3.32789 59.7742 3.52544 59.8879 3.7649C60.0076 4.00435 60.0675 4.28871 60.0675 4.61796C60.0675 4.94721 60.0076 5.23456 59.8879 5.48C59.7742 5.71946 59.6185 5.92 59.421 6.08163C59.2234 6.24327 58.9929 6.36299 58.7295 6.44082C58.4721 6.51864 58.1967 6.55755 57.9034 6.55755H56.2512V8.75755C56.2512 8.8234 56.2272 8.88027 56.1793 8.92816C56.1314 8.97605 56.0746 9 56.0087 9H55.6405C55.5747 9 55.5178 8.97605 55.4699 8.92816C55.422 8.88027 55.3981 8.8234 55.3981 8.75755V2.95673C55.3981 2.89088 55.422 2.83401 55.4699 2.78612C55.5178 2.73823 55.5747 2.71428 55.6405 2.71428H57.9034ZM56.2512 5.74939H57.8585C58.2895 5.74939 58.6218 5.6566 58.8552 5.47102C59.0947 5.28544 59.2144 5.00109 59.2144 4.61796C59.2144 4.23483 59.0947 3.95646 58.8552 3.78286C58.6218 3.60925 58.2895 3.52245 57.8585 3.52245H56.2512V5.74939ZM60.9084 5.05796C60.9144 4.72272 60.9713 4.40843 61.079 4.1151C61.1928 3.81578 61.3544 3.55837 61.5639 3.34286C61.7734 3.12136 62.0309 2.94775 62.3362 2.82204C62.6415 2.69034 62.9917 2.62449 63.3868 2.62449C63.7819 2.62449 64.1321 2.69034 64.4374 2.82204C64.7427 2.94775 65.0001 3.12136 65.2096 3.34286C65.4192 3.55837 65.5778 3.81578 65.6856 4.1151C65.7993 4.40843 65.8592 4.72272 65.8651 5.05796C65.8831 5.59075 65.8831 6.12354 65.8651 6.65633C65.8532 6.99156 65.7903 7.30884 65.6766 7.60816C65.5688 7.9015 65.4102 8.15891 65.2007 8.38041C64.9911 8.6019 64.7337 8.77551 64.4284 8.90122C64.1291 9.02694 63.7819 9.0898 63.3868 9.0898C62.9917 9.0898 62.6415 9.02694 62.3362 8.90122C62.0368 8.77551 61.7824 8.6019 61.5729 8.38041C61.3634 8.15891 61.2017 7.9015 61.088 7.60816C60.9802 7.30884 60.9204 6.99156 60.9084 6.65633C60.8905 6.12354 60.8905 5.59075 60.9084 5.05796ZM65.0121 5.10286C65.0001 4.8215 64.9522 4.57605 64.8684 4.36653C64.7906 4.15701 64.6798 3.9834 64.5362 3.84571C64.3925 3.70803 64.2219 3.60626 64.0243 3.54041C63.8328 3.46857 63.6202 3.43265 63.3868 3.43265C63.1533 3.43265 62.9378 3.46857 62.7402 3.54041C62.5487 3.60626 62.3811 3.70803 62.2374 3.84571C62.0937 3.9834 61.98 4.15701 61.8962 4.36653C61.8124 4.57605 61.7675 4.8215 61.7615 5.10286C61.7495 5.37224 61.7435 5.62367 61.7435 5.85714C61.7435 6.09061 61.7495 6.34204 61.7615 6.61143C61.7675 6.89279 61.8124 7.13823 61.8962 7.34775C61.98 7.55728 62.0937 7.73088 62.2374 7.86857C62.3811 8.00626 62.5487 8.11102 62.7402 8.18286C62.9378 8.24871 63.1533 8.28163 63.3868 8.28163C63.6202 8.28163 63.8328 8.24871 64.0243 8.18286C64.2219 8.11102 64.3925 8.00626 64.5362 7.86857C64.6798 7.73088 64.7906 7.55728 64.8684 7.34775C64.9522 7.13823 65.0001 6.89279 65.0121 6.61143C65.0241 6.34204 65.03 6.09061 65.03 5.85714C65.03 5.62367 65.0241 5.37224 65.0121 5.10286ZM70.0675 4.10612C70.1753 4.10612 70.2501 4.13905 70.292 4.2049C70.3339 4.27075 70.3609 4.32463 70.3728 4.36653L71.3606 7.92245L72.2765 2.95673C72.2945 2.86694 72.3304 2.80408 72.3843 2.76816C72.4381 2.73224 72.495 2.71428 72.5549 2.71428H72.9141C72.9679 2.71428 73.0128 2.73524 73.0488 2.77714C73.0907 2.81306 73.1116 2.85796 73.1116 2.91184C73.1116 2.9298 73.1086 2.95374 73.1026 2.98367L71.9981 8.53306C71.9682 8.68272 71.9233 8.79946 71.8634 8.88327C71.8036 8.96109 71.7018 9 71.5581 9H71.199C71.0613 9 70.9595 8.9581 70.8936 8.87429C70.8278 8.78449 70.7769 8.67075 70.741 8.53306L69.9149 5.53388L69.0888 8.53306C69.0528 8.67075 69.0019 8.78449 68.9361 8.87429C68.8702 8.9581 68.7685 9 68.6308 9H68.2716C68.1279 9 68.0262 8.96109 67.9663 8.88327C67.9064 8.79946 67.8615 8.68272 67.8316 8.53306L66.7271 2.98367C66.7211 2.95374 66.7181 2.9298 66.7181 2.91184C66.7181 2.85796 66.7361 2.81306 66.772 2.77714C66.8139 2.73524 66.8618 2.71428 66.9157 2.71428H67.2749C67.3347 2.71428 67.3916 2.73224 67.4455 2.76816C67.4994 2.80408 67.5353 2.86694 67.5532 2.95673L68.4692 7.92245L69.4569 4.36653C69.4689 4.32463 69.4958 4.27075 69.5377 4.2049C69.5796 4.13905 69.6545 4.10612 69.7622 4.10612H70.0675ZM78.1132 8.19184C78.179 8.19184 78.2359 8.21578 78.2838 8.26367C78.3317 8.31156 78.3556 8.36844 78.3556 8.43429V8.75755C78.3556 8.8234 78.3317 8.88027 78.2838 8.92816C78.2359 8.97605 78.179 9 78.1132 9H74.4854C74.4196 9 74.3627 8.97605 74.3148 8.92816C74.2669 8.88027 74.243 8.8234 74.243 8.75755V2.95673C74.243 2.89088 74.2669 2.83401 74.3148 2.78612C74.3627 2.73823 74.4196 2.71428 74.4854 2.71428H78.0413C78.1072 2.71428 78.1641 2.73823 78.2119 2.78612C78.2598 2.83401 78.2838 2.89088 78.2838 2.95673V3.28C78.2838 3.34585 78.2598 3.40272 78.2119 3.45061C78.1641 3.4985 78.1072 3.52245 78.0413 3.52245H75.096V5.41714H77.8438C77.9096 5.41714 77.9665 5.44109 78.0144 5.48898C78.0623 5.53687 78.0862 5.59374 78.0862 5.65959V5.98286C78.0862 6.04871 78.0623 6.10558 78.0144 6.15347C77.9665 6.20136 77.9096 6.22531 77.8438 6.22531H75.096V8.19184H78.1132ZM81.9726 2.71428C82.2659 2.71428 82.5413 2.7502 82.7987 2.82204C83.0621 2.89388 83.2926 3.00463 83.4901 3.15429C83.6877 3.30394 83.8433 3.49551 83.9571 3.72898C84.0768 3.96245 84.1367 4.24381 84.1367 4.57306C84.1367 5.05796 84.0139 5.44408 83.7685 5.73143C83.529 6.01878 83.2207 6.22231 82.8436 6.34204L84.1995 8.70367C84.2175 8.73959 84.2264 8.77252 84.2264 8.80245C84.2264 8.85633 84.2055 8.90422 84.1636 8.94612C84.1277 8.98204 84.0828 9 84.0289 9H83.6428C83.523 9 83.4333 8.97007 83.3734 8.9102C83.3195 8.85034 83.2806 8.79946 83.2567 8.75755L81.9546 6.46775H80.4101V8.75755C80.4101 8.8234 80.3862 8.88027 80.3383 8.92816C80.2904 8.97605 80.2335 9 80.1677 9H79.7995C79.7337 9 79.6768 8.97605 79.6289 8.92816C79.581 8.88027 79.5571 8.8234 79.5571 8.75755V2.95673C79.5571 2.89088 79.581 2.83401 79.6289 2.78612C79.6768 2.73823 79.7337 2.71428 79.7995 2.71428H81.9726ZM80.4101 5.65959H81.9277C82.3587 5.65959 82.6909 5.57578 82.9244 5.40816C83.1639 5.23456 83.2836 4.95619 83.2836 4.57306C83.2836 4.18993 83.1639 3.92054 82.9244 3.7649C82.6909 3.60326 82.3587 3.52245 81.9277 3.52245H80.4101V5.65959ZM89.2763 8.19184C89.3421 8.19184 89.399 8.21578 89.4469 8.26367C89.4948 8.31156 89.5187 8.36844 89.5187 8.43429V8.75755C89.5187 8.8234 89.4948 8.88027 89.4469 8.92816C89.399 8.97605 89.3421 9 89.2763 9H85.6485C85.5827 9 85.5258 8.97605 85.4779 8.92816C85.43 8.88027 85.4061 8.8234 85.4061 8.75755V2.95673C85.4061 2.89088 85.43 2.83401 85.4779 2.78612C85.5258 2.73823 85.5827 2.71428 85.6485 2.71428H89.2044C89.2703 2.71428 89.3272 2.73823 89.3751 2.78612C89.4229 2.83401 89.4469 2.89088 89.4469 2.95673V3.28C89.4469 3.34585 89.4229 3.40272 89.3751 3.45061C89.3272 3.4985 89.2703 3.52245 89.2044 3.52245H86.2591V5.41714H89.0069C89.0727 5.41714 89.1296 5.44109 89.1775 5.48898C89.2254 5.53687 89.2493 5.59374 89.2493 5.65959V5.98286C89.2493 6.04871 89.2254 6.10558 89.1775 6.15347C89.1296 6.20136 89.0727 6.22531 89.0069 6.22531H86.2591V8.19184H89.2763ZM95.5961 5.14775C95.6021 5.41714 95.6051 5.65361 95.6051 5.85714C95.6051 6.06068 95.6021 6.29714 95.5961 6.56653C95.5901 6.94367 95.5242 7.2849 95.3985 7.5902C95.2728 7.88952 95.0992 8.14395 94.8777 8.35347C94.6562 8.56299 94.3928 8.72463 94.0875 8.83837C93.7822 8.94612 93.444 9 93.0728 9H90.9626C90.8968 9 90.8399 8.97605 90.792 8.92816C90.7441 8.88027 90.7202 8.8234 90.7202 8.75755V2.95673C90.7202 2.89088 90.7441 2.83401 90.792 2.78612C90.8399 2.73823 90.8968 2.71428 90.9626 2.71428H93.0189C93.3901 2.71428 93.7313 2.77116 94.0426 2.8849C94.3599 2.99265 94.6323 3.15129 94.8598 3.36082C95.0872 3.57034 95.2638 3.82775 95.3896 4.13306C95.5213 4.43238 95.5901 4.77061 95.5961 5.14775ZM94.743 5.19265C94.737 4.97714 94.7011 4.77061 94.6353 4.57306C94.5754 4.36952 94.4766 4.18993 94.3389 4.03429C94.2013 3.87864 94.0217 3.75592 93.8002 3.66612C93.5787 3.57034 93.3063 3.52245 92.983 3.52245H91.5732V8.19184H93.0279C93.3512 8.19184 93.6206 8.14694 93.8361 8.05714C94.0576 7.96136 94.2342 7.83565 94.3659 7.68C94.4976 7.52435 94.5904 7.34775 94.6442 7.1502C94.7041 6.94667 94.737 6.73714 94.743 6.52163C94.743 6.38993 94.743 6.2732 94.743 6.17143C94.749 6.06367 94.752 5.9619 94.752 5.86612C94.752 5.76435 94.749 5.66258 94.743 5.56082C94.743 5.45306 94.743 5.33034 94.743 5.19265ZM99.9478 6.14449V8.19184H101.78C101.977 8.19184 102.151 8.1649 102.3 8.11102C102.456 8.05714 102.585 7.98231 102.687 7.88653C102.788 7.79075 102.863 7.68299 102.911 7.56327C102.965 7.44354 102.992 7.31483 102.992 7.17714C102.992 7.04544 102.968 6.91673 102.92 6.79102C102.872 6.66531 102.797 6.55456 102.696 6.45878C102.6 6.36299 102.474 6.28816 102.318 6.23429C102.169 6.17442 101.989 6.14449 101.78 6.14449H99.9478ZM99.9478 3.52245V5.33633H101.654C102.055 5.33633 102.354 5.2585 102.552 5.10286C102.755 4.94721 102.857 4.72272 102.857 4.42939C102.857 4.13605 102.755 3.91156 102.552 3.75592C102.354 3.60027 102.055 3.52245 101.654 3.52245H99.9478ZM99.3371 9C99.2713 9 99.2144 8.97605 99.1665 8.92816C99.1186 8.88027 99.0947 8.8234 99.0947 8.75755V2.95673C99.0947 2.89088 99.1186 2.83401 99.1665 2.78612C99.2144 2.73823 99.2713 2.71428 99.3371 2.71428H101.744C102.127 2.71428 102.444 2.77415 102.696 2.89388C102.947 3.00762 103.147 3.15129 103.297 3.3249C103.447 3.49252 103.552 3.6751 103.611 3.87265C103.677 4.0702 103.71 4.2468 103.71 4.40245C103.71 4.6 103.68 4.7736 103.62 4.92326C103.561 5.07292 103.489 5.19864 103.405 5.30041C103.327 5.40218 103.246 5.48299 103.162 5.54286C103.085 5.60272 103.028 5.64463 102.992 5.66857C103.219 5.82422 103.417 6.03075 103.584 6.28816C103.758 6.53959 103.845 6.83592 103.845 7.17714C103.845 7.40463 103.803 7.62612 103.719 7.84163C103.635 8.05714 103.51 8.2517 103.342 8.42531C103.18 8.59891 102.974 8.73959 102.722 8.84735C102.477 8.94912 102.193 9 101.869 9H99.3371ZM107.388 8.75755C107.388 8.8234 107.365 8.88027 107.317 8.92816C107.269 8.97605 107.212 9 107.146 9H106.778C106.712 9 106.655 8.97605 106.607 8.92816C106.559 8.88027 106.535 8.8234 106.535 8.75755V6.65633L104.389 3.03755C104.359 2.98367 104.344 2.94177 104.344 2.91184C104.344 2.85796 104.362 2.81306 104.398 2.77714C104.44 2.73524 104.488 2.71428 104.542 2.71428H104.928C105.048 2.71428 105.132 2.73823 105.179 2.78612C105.233 2.83401 105.275 2.8849 105.305 2.93878L106.957 5.79429L108.619 2.93878C108.649 2.8849 108.688 2.83401 108.735 2.78612C108.789 2.73823 108.876 2.71428 108.996 2.71428H109.382C109.436 2.71428 109.481 2.73524 109.517 2.77714C109.559 2.81306 109.579 2.85796 109.579 2.91184C109.579 2.94177 109.565 2.98367 109.535 3.03755L107.388 6.65633V8.75755Z" fill="white"/>
<path fill-rule="evenodd" clip-rule="evenodd" d="M17.2986 27.0916H20.0991V23.6129H21.5749L23.3459 27.0916H26.2904L24.1524 23.0652L24.3467 22.9495C24.5043 22.8549 24.6495 22.7395 24.7787 22.6063C24.9683 22.4193 25.1418 22.2154 25.297 21.9969C25.4917 21.7124 25.6412 21.3973 25.7398 21.0636C25.8646 20.6639 25.9266 20.2459 25.9234 19.8256C25.9466 18.8099 25.5617 17.8301 24.8615 17.1221C24.1535 16.3944 23.2548 16.0306 22.1654 16.0306H17.2986V27.0916ZM23.1232 19.8219C23.1307 20.1189 23.0185 20.4056 22.8136 20.6126C22.5996 20.8266 22.3111 20.9408 22.0145 20.9289H20.0992V18.7232H22.0145C22.3104 18.7112 22.5985 18.8238 22.8136 19.0356C23.0187 19.2406 23.1311 19.5261 23.1232 19.8219ZM29.7538 23.2197C29.7434 22.7858 29.8943 22.3645 30.1749 22.0434C30.4155 21.7383 30.7748 21.5614 31.1541 21.5614C31.5334 21.5614 31.8927 21.7383 32.1332 22.0434C32.4139 22.3645 32.5648 22.7858 32.5544 23.2197C32.5647 23.6536 32.4139 24.0749 32.1332 24.396C31.8927 24.7011 31.5334 24.878 31.1541 24.878C30.7748 24.878 30.4155 24.7011 30.1749 24.396C29.8943 24.0749 29.7434 23.6536 29.7538 23.2197ZM35.1325 23.2196C35.1325 22.1448 34.7425 21.205 33.9626 20.4003C32.4089 18.7908 29.8972 18.7908 28.3435 20.4003C27.5611 21.2051 27.17 22.1448 27.1701 23.2196C27.1701 24.2943 27.5613 25.2341 28.3435 26.0389C29.8972 27.6484 32.4089 27.6484 33.9626 26.0389C34.7429 25.2341 35.133 24.2943 35.133 23.2196H35.1325ZM36.1617 23.2193C36.1617 24.2942 36.5529 25.2339 37.3352 26.0386C38.0727 26.8243 39.0876 27.2607 40.143 27.2461C40.5212 27.247 40.8973 27.1885 41.2588 27.0726C41.5623 26.9818 41.8547 26.855 42.1303 26.6946C42.3507 26.5587 42.558 26.4013 42.7495 26.2244C42.882 26.1094 43.0048 25.983 43.1167 25.8464C43.1695 25.7717 43.2102 25.7139 43.239 25.6728L41.77 24.0138L41.6188 24.2143C41.4731 24.398 41.2931 24.5489 41.0896 24.6579C40.8478 24.803 40.5733 24.8788 40.2941 24.8777C39.8779 24.8887 39.4765 24.7164 39.1888 24.4033C38.8936 24.0871 38.7339 23.66 38.746 23.2193C38.7339 22.7786 38.8936 22.3516 39.1888 22.0353C39.4765 21.7223 39.8778 21.55 40.2939 21.561C40.5808 21.5619 40.8616 21.6473 41.1038 21.8073C41.2864 21.9118 41.4537 22.043 41.6006 22.1968C41.6608 22.2721 41.7173 22.3506 41.7698 22.4319L43.2384 20.7736L43.1232 20.6115C43.0124 20.462 42.8842 20.3273 42.7417 20.2105C42.5475 20.0438 42.3431 19.8904 42.1297 19.7515C41.8553 19.5798 41.5599 19.4474 41.2514 19.358C39.8611 18.935 38.3598 19.3342 37.3349 20.3993C36.5527 21.2046 36.1616 22.1446 36.1617 23.2193ZM49.4301 22.6718L52.0795 19.3473H49.2067L47.0688 22.0393V16.0306H44.5634V27.0916H47.0688V25.117L47.7312 24.3302L49.4301 27.0916H52.1587L49.4301 22.6718ZM54.0678 15.7144L52.448 19.5865L53.9958 20.5353L56.134 16.9795L54.0678 15.7144ZM59.7407 19.3473H57.2356V27.0916H59.7407V23.2194C59.7407 22.7567 59.8511 22.3916 60.0719 22.1241C60.2811 21.8622 60.5941 21.7144 60.9214 21.7231C61.205 21.7145 61.4774 21.8391 61.6629 22.0624C61.8549 22.2887 61.9509 22.5972 61.9509 22.988V27.0916H64.4563V22.5103C64.4563 21.5229 64.2091 20.7233 63.7147 20.1114C63.2503 19.5138 62.5454 19.1745 61.8069 19.1933C61.4112 19.1941 61.0222 19.3003 60.6771 19.5019C60.3172 19.7076 60.0856 19.8709 59.9825 19.9917C59.8793 20.1126 59.7987 20.214 59.7407 20.296V19.3473ZM67.3284 15.7144L65.7086 19.5865L67.2564 20.5353L69.3946 16.9795L67.3284 15.7144ZM75.8023 27.0917C76.9013 27.0917 77.8024 26.7677 78.5056 26.1198C79.2088 25.4718 79.5603 24.7159 79.5601 23.852C79.5636 23.4994 79.4961 23.15 79.3621 22.8261C79.2559 22.5549 79.1062 22.3045 78.9194 22.0856C78.7517 21.9017 78.5631 21.7398 78.3578 21.6035C78.216 21.5036 78.0681 21.4134 77.915 21.3335C77.8311 21.295 77.7651 21.2654 77.717 21.2449L77.8539 21.1677C77.9756 21.0968 78.0881 21.0099 78.1887 20.9093C78.3267 20.7764 78.4555 20.6333 78.5739 20.4812C78.7205 20.2832 78.8326 20.06 78.9049 19.8216C78.9968 19.5423 79.0431 19.249 79.0418 18.9538C79.0418 18.167 78.7178 17.4831 78.0699 16.902C77.4219 16.3209 76.5676 16.0304 75.5069 16.0304H70.8635V27.0915H75.8023V27.0917ZM73.6642 24.7237V22.5104H75.5794C75.876 22.4985 76.1645 22.6126 76.3785 22.8267C76.7915 23.2661 76.7915 23.9684 76.3785 24.4079C76.1645 24.6219 75.876 24.7361 75.5794 24.7242H73.6642V24.7237ZM75.2125 18.4064C75.469 18.3926 75.7203 18.4856 75.9108 18.6648C76.0868 18.8451 76.181 19.0946 76.1701 19.3513C76.181 19.608 76.0868 19.8575 75.9108 20.0378C75.7203 20.217 75.469 20.31 75.2125 20.2963H73.6642V18.4064H75.2125ZM83.5429 16.0306H81.0376V27.0916H83.5429V16.0306ZM87.5952 23.2195C87.5848 22.7856 87.7357 22.3642 88.0164 22.0431C88.2569 21.7379 88.6163 21.561 88.9956 21.561C89.3749 21.561 89.7342 21.7379 89.9747 22.0431C90.2554 22.3642 90.4063 22.7855 90.3959 23.2194C90.4063 23.6533 90.2555 24.0747 89.9747 24.3958C89.7342 24.701 89.3749 24.8779 88.9956 24.8779C88.6163 24.8779 88.2569 24.701 88.0164 24.3958C87.7357 24.0747 87.5848 23.6533 87.5952 23.2194V23.2195ZM92.9742 23.2196C92.9742 22.1448 92.5842 21.205 91.8042 20.4003C90.2506 18.7908 87.7389 18.7908 86.1852 20.4003C85.4028 21.2051 85.0116 22.1448 85.0116 23.2196C85.0116 24.2943 85.4028 25.2341 86.1852 26.0389C87.7389 27.6484 90.2506 27.6484 91.8042 26.0389C92.5841 25.234 92.9741 24.2942 92.9742 23.2195V23.2196ZM94.0033 23.2195C94.0033 24.2943 94.3944 25.2341 95.1768 26.0388C95.9142 26.8243 96.9291 27.2608 97.9844 27.2461C98.3627 27.247 98.7389 27.1885 99.1003 27.0726C99.4038 26.9818 99.6963 26.855 99.9719 26.6946C100.192 26.5588 100.4 26.4013 100.591 26.2244C100.724 26.1095 100.846 25.983 100.958 25.8464C101.011 25.7718 101.052 25.7139 101.081 25.6729L99.6115 24.0138L99.4604 24.2144C99.3147 24.398 99.1346 24.5489 98.9312 24.6579C98.6893 24.803 98.4148 24.8789 98.1356 24.8777C97.7195 24.8886 97.3182 24.7164 97.0306 24.4033C96.7354 24.0871 96.5756 23.66 96.5878 23.2194C96.5756 22.7787 96.7354 22.3516 97.0306 22.0354C97.3182 21.7223 97.7195 21.5501 98.1356 21.561C98.4225 21.562 98.7033 21.6474 98.9456 21.8073C99.1282 21.9118 99.2955 22.043 99.4423 22.1968C99.5026 22.2721 99.5591 22.3506 99.6115 22.4319L101.08 20.7736L100.965 20.6116C100.854 20.462 100.726 20.3273 100.583 20.2105C100.389 20.0438 100.185 19.8904 99.9715 19.7515C99.6971 19.5798 99.4016 19.4474 99.0931 19.3581C97.7028 18.935 96.2014 19.3342 95.1765 20.3993C94.3943 21.2046 94.0032 22.1446 94.0033 23.2194V23.2195ZM107.272 22.6719L109.921 19.3474H107.049L104.91 22.0393V16.0306H102.405V27.0916H104.91V25.117L105.573 24.3302L107.272 27.0916H110L107.272 22.6719Z" fill="white"/>
<path fill-rule="evenodd" clip-rule="evenodd" d="M0 15.7151H10.6452V26.8038H0V15.7151Z" fill="#FF0000"/>
<path fill-rule="evenodd" clip-rule="evenodd" d="M6.771 16.6013L2.21841 21.5152H5.05778L3.32649 25.9159L8.42812 19.9787H5.58875L6.771 16.6013Z" fill="white"/>
</svg>
