<svg width="110" height="28" viewBox="0 0 110 28" fill="none" xmlns="http://www.w3.org/2000/svg">
<path opacity="0.6" d="M30.2776 2.7138C30.5709 2.7138 30.8463 2.75271 31.1037 2.83053C31.3671 2.90237 31.5976 3.01611 31.7951 3.17176C31.9927 3.3274 32.1483 3.52495 32.262 3.76441C32.3818 4.00386 32.4416 4.28822 32.4416 4.61747C32.4416 4.94672 32.3818 5.23407 32.262 5.47951C32.1483 5.71897 31.9927 5.91951 31.7951 6.08114C31.5976 6.24278 31.3671 6.3625 31.1037 6.44033C30.8463 6.51815 30.5709 6.55706 30.2776 6.55706H28.6253V8.75706C28.6253 8.82291 28.6014 8.87978 28.5535 8.92767C28.5056 8.97557 28.4487 8.99951 28.3829 8.99951H28.0147C27.9488 8.99951 27.892 8.97557 27.8441 8.92767C27.7962 8.87978 27.7722 8.82291 27.7722 8.75706V2.95625C27.7722 2.8904 27.7962 2.83352 27.8441 2.78563C27.892 2.73774 27.9488 2.7138 28.0147 2.7138H30.2776ZM28.6253 5.7489H30.2327C30.6637 5.7489 30.9959 5.65611 31.2294 5.47053C31.4688 5.28495 31.5886 5.0006 31.5886 4.61747C31.5886 4.23434 31.4688 3.95597 31.2294 3.78237C30.9959 3.60876 30.6637 3.52196 30.2327 3.52196H28.6253V5.7489ZM33.2826 5.05747C33.2885 4.72223 33.3454 4.40795 33.4532 4.11461C33.5669 3.81529 33.7285 3.55788 33.9381 3.34237C34.1476 3.12087 34.405 2.94727 34.7103 2.82155C35.0156 2.68985 35.3658 2.624 35.7609 2.624C36.156 2.624 36.5062 2.68985 36.8115 2.82155C37.1168 2.94727 37.3743 3.12087 37.5838 3.34237C37.7933 3.55788 37.9519 3.81529 38.0597 4.11461C38.1734 4.40795 38.2333 4.72223 38.2393 5.05747C38.2573 5.59026 38.2573 6.12305 38.2393 6.65584C38.2273 6.99108 38.1645 7.30836 38.0507 7.60767C37.943 7.90101 37.7843 8.15842 37.5748 8.37992C37.3653 8.60142 37.1079 8.77502 36.8026 8.90074C36.5032 9.02645 36.156 9.08931 35.7609 9.08931C35.3658 9.08931 35.0156 9.02645 34.7103 8.90074C34.411 8.77502 34.1566 8.60142 33.947 8.37992C33.7375 8.15842 33.5759 7.90101 33.4621 7.60767C33.3544 7.30836 33.2945 6.99108 33.2826 6.65584C33.2646 6.12305 33.2646 5.59026 33.2826 5.05747ZM37.3862 5.10237C37.3743 4.82101 37.3264 4.57557 37.2426 4.36604C37.1647 4.15652 37.054 3.98291 36.9103 3.84523C36.7666 3.70754 36.596 3.60577 36.3985 3.53992C36.2069 3.46808 35.9944 3.43216 35.7609 3.43216C35.5275 3.43216 35.3119 3.46808 35.1144 3.53992C34.9228 3.60577 34.7552 3.70754 34.6115 3.84523C34.4679 3.98291 34.3541 4.15652 34.2703 4.36604C34.1865 4.57557 34.1416 4.82101 34.1356 5.10237C34.1236 5.37176 34.1177 5.62318 34.1177 5.85665C34.1177 6.09012 34.1236 6.34155 34.1356 6.61094C34.1416 6.8923 34.1865 7.13774 34.2703 7.34727C34.3541 7.55679 34.4679 7.7304 34.6115 7.86808C34.7552 8.00577 34.9228 8.11053 35.1144 8.18237C35.3119 8.24822 35.5275 8.28114 35.7609 8.28114C35.9944 8.28114 36.2069 8.24822 36.3985 8.18237C36.596 8.11053 36.7666 8.00577 36.9103 7.86808C37.054 7.7304 37.1647 7.55679 37.2426 7.34727C37.3264 7.13774 37.3743 6.8923 37.3862 6.61094C37.3982 6.34155 37.4042 6.09012 37.4042 5.85665C37.4042 5.62318 37.3982 5.37176 37.3862 5.10237ZM42.4417 4.10563C42.5494 4.10563 42.6243 4.13856 42.6662 4.20441C42.7081 4.27026 42.735 4.32414 42.747 4.36604L43.7347 7.92196L44.6507 2.95625C44.6686 2.86645 44.7045 2.80359 44.7584 2.76767C44.8123 2.73176 44.8692 2.7138 44.929 2.7138H45.2882C45.3421 2.7138 45.387 2.73475 45.4229 2.77665C45.4648 2.81257 45.4858 2.85747 45.4858 2.91135C45.4858 2.92931 45.4828 2.95325 45.4768 2.98318L44.3723 8.53257C44.3424 8.68223 44.2975 8.79897 44.2376 8.88278C44.1777 8.9606 44.076 8.99951 43.9323 8.99951H43.5731C43.4354 8.99951 43.3336 8.95761 43.2678 8.8738C43.2019 8.784 43.1511 8.67026 43.1151 8.53257L42.289 5.53339L41.4629 8.53257C41.427 8.67026 41.3761 8.784 41.3102 8.8738C41.2444 8.95761 41.1426 8.99951 41.0049 8.99951H40.6458C40.5021 8.99951 40.4003 8.9606 40.3404 8.88278C40.2806 8.79897 40.2357 8.68223 40.2058 8.53257L39.1013 2.98318C39.0953 2.95325 39.0923 2.92931 39.0923 2.91135C39.0923 2.85747 39.1102 2.81257 39.1462 2.77665C39.1881 2.73475 39.236 2.7138 39.2898 2.7138H39.649C39.7089 2.7138 39.7658 2.73176 39.8196 2.76767C39.8735 2.80359 39.9094 2.86645 39.9274 2.95625L40.8433 7.92196L41.8311 4.36604C41.843 4.32414 41.87 4.27026 41.9119 4.20441C41.9538 4.13856 42.0286 4.10563 42.1364 4.10563H42.4417ZM50.4873 8.19135C50.5532 8.19135 50.61 8.21529 50.6579 8.26319C50.7058 8.31108 50.7298 8.36795 50.7298 8.4338V8.75706C50.7298 8.82291 50.7058 8.87978 50.6579 8.92767C50.61 8.97557 50.5532 8.99951 50.4873 8.99951H46.8596C46.7937 8.99951 46.7368 8.97557 46.6889 8.92767C46.6411 8.87978 46.6171 8.82291 46.6171 8.75706V2.95625C46.6171 2.8904 46.6411 2.83352 46.6889 2.78563C46.7368 2.73774 46.7937 2.7138 46.8596 2.7138H50.4155C50.4813 2.7138 50.5382 2.73774 50.5861 2.78563C50.634 2.83352 50.6579 2.8904 50.6579 2.95625V3.27951C50.6579 3.34536 50.634 3.40223 50.5861 3.45012C50.5382 3.49801 50.4813 3.52196 50.4155 3.52196H47.4702V5.41665H50.2179C50.2838 5.41665 50.3407 5.4406 50.3885 5.48849C50.4364 5.53638 50.4604 5.59325 50.4604 5.6591V5.98237C50.4604 6.04822 50.4364 6.10509 50.3885 6.15298C50.3407 6.20087 50.2838 6.22482 50.2179 6.22482H47.4702V8.19135H50.4873ZM54.3467 2.7138C54.6401 2.7138 54.9154 2.74972 55.1728 2.82155C55.4362 2.89339 55.6667 3.00414 55.8643 3.1538C56.0618 3.30346 56.2175 3.49502 56.3312 3.72849C56.4509 3.96196 56.5108 4.24332 56.5108 4.57257C56.5108 5.05747 56.3881 5.44359 56.1426 5.73094C55.9032 6.01829 55.5949 6.22182 55.2177 6.34155L56.5737 8.70319C56.5916 8.7391 56.6006 8.77203 56.6006 8.80196C56.6006 8.85584 56.5796 8.90373 56.5377 8.94563C56.5018 8.98155 56.4569 8.99951 56.403 8.99951H56.0169C55.8972 8.99951 55.8074 8.96958 55.7475 8.90972C55.6937 8.84985 55.6547 8.79897 55.6308 8.75706L54.3288 6.46727H52.7843V8.75706C52.7843 8.82291 52.7603 8.87978 52.7124 8.92767C52.6645 8.97557 52.6077 8.99951 52.5418 8.99951H52.1737C52.1078 8.99951 52.0509 8.97557 52.003 8.92767C51.9552 8.87978 51.9312 8.82291 51.9312 8.75706V2.95625C51.9312 2.8904 51.9552 2.83352 52.003 2.78563C52.0509 2.73774 52.1078 2.7138 52.1737 2.7138H54.3467ZM52.7843 5.6591H54.3018C54.7328 5.6591 55.0651 5.57529 55.2986 5.40767C55.538 5.23407 55.6577 4.9557 55.6577 4.57257C55.6577 4.18944 55.538 3.92006 55.2986 3.76441C55.0651 3.60278 54.7328 3.52196 54.3018 3.52196H52.7843V5.6591ZM61.6504 8.19135C61.7163 8.19135 61.7731 8.21529 61.821 8.26319C61.8689 8.31108 61.8929 8.36795 61.8929 8.4338V8.75706C61.8929 8.82291 61.8689 8.87978 61.821 8.92767C61.7731 8.97557 61.7163 8.99951 61.6504 8.99951H58.0227C57.9568 8.99951 57.8999 8.97557 57.8521 8.92767C57.8042 8.87978 57.7802 8.82291 57.7802 8.75706V2.95625C57.7802 2.8904 57.8042 2.83352 57.8521 2.78563C57.8999 2.73774 57.9568 2.7138 58.0227 2.7138H61.5786C61.6444 2.7138 61.7013 2.73774 61.7492 2.78563C61.7971 2.83352 61.821 2.8904 61.821 2.95625V3.27951C61.821 3.34536 61.7971 3.40223 61.7492 3.45012C61.7013 3.49801 61.6444 3.52196 61.5786 3.52196H58.6333V5.41665H61.381C61.4469 5.41665 61.5038 5.4406 61.5516 5.48849C61.5995 5.53638 61.6235 5.59325 61.6235 5.6591V5.98237C61.6235 6.04822 61.5995 6.10509 61.5516 6.15298C61.5038 6.20087 61.4469 6.22482 61.381 6.22482H58.6333V8.19135H61.6504ZM67.9702 5.14727C67.9762 5.41665 67.9792 5.65312 67.9792 5.85665C67.9792 6.06019 67.9762 6.29665 67.9702 6.56604C67.9642 6.94318 67.8984 7.28441 67.7727 7.58972C67.647 7.88904 67.4734 8.14346 67.2519 8.35298C67.0304 8.5625 66.767 8.72414 66.4617 8.83788C66.1564 8.94563 65.8181 8.99951 65.447 8.99951H63.3368C63.2709 8.99951 63.214 8.97557 63.1661 8.92767C63.1183 8.87978 63.0943 8.82291 63.0943 8.75706V2.95625C63.0943 2.8904 63.1183 2.83352 63.1661 2.78563C63.214 2.73774 63.2709 2.7138 63.3368 2.7138H65.3931C65.7642 2.7138 66.1055 2.77067 66.4168 2.88441C66.734 2.99216 67.0064 3.1508 67.2339 3.36033C67.4614 3.56985 67.638 3.82727 67.7637 4.13257C67.8954 4.43189 67.9642 4.77012 67.9702 5.14727ZM67.1172 5.19216C67.1112 4.97665 67.0753 4.77012 67.0094 4.57257C66.9496 4.36904 66.8508 4.18944 66.7131 4.0338C66.5754 3.87815 66.3958 3.75543 66.1743 3.66563C65.9528 3.56985 65.6804 3.52196 65.3572 3.52196H63.9474V8.19135H65.4021C65.7253 8.19135 65.9947 8.14645 66.2102 8.05665C66.4317 7.96087 66.6083 7.83516 66.74 7.67951C66.8717 7.52387 66.9645 7.34727 67.0184 7.14972C67.0783 6.94618 67.1112 6.73665 67.1172 6.52114C67.1172 6.38944 67.1172 6.27271 67.1172 6.17094C67.1232 6.06318 67.1261 5.96142 67.1261 5.86563C67.1261 5.76387 67.1232 5.6621 67.1172 5.56033C67.1172 5.45257 67.1172 5.32985 67.1172 5.19216ZM72.3219 6.144V8.19135H74.1537C74.3513 8.19135 74.5249 8.16441 74.6745 8.11053C74.8302 8.05665 74.9589 7.98182 75.0607 7.88604C75.1624 7.79026 75.2373 7.6825 75.2852 7.56278C75.339 7.44305 75.366 7.31434 75.366 7.17665C75.366 7.04495 75.342 6.91625 75.2941 6.79053C75.2463 6.66482 75.1714 6.55407 75.0697 6.45829C74.9739 6.3625 74.8482 6.28767 74.6925 6.2338C74.5428 6.17393 74.3633 6.144 74.1537 6.144H72.3219ZM72.3219 3.52196V5.33584H74.028C74.4291 5.33584 74.7284 5.25801 74.926 5.10237C75.1295 4.94672 75.2313 4.72223 75.2313 4.4289C75.2313 4.13557 75.1295 3.91108 74.926 3.75543C74.7284 3.59978 74.4291 3.52196 74.028 3.52196H72.3219ZM71.7113 8.99951C71.6454 8.99951 71.5886 8.97557 71.5407 8.92767C71.4928 8.87978 71.4688 8.82291 71.4688 8.75706V2.95625C71.4688 2.8904 71.4928 2.83352 71.5407 2.78563C71.5886 2.73774 71.6454 2.7138 71.7113 2.7138H74.1178C74.5009 2.7138 74.8182 2.77366 75.0697 2.89339C75.3211 3.00713 75.5216 3.1508 75.6713 3.32441C75.8209 3.49203 75.9257 3.67461 75.9856 3.87216C76.0514 4.06972 76.0843 4.24631 76.0843 4.40196C76.0843 4.59951 76.0544 4.77312 75.9946 4.92278C75.9347 5.07244 75.8628 5.19815 75.779 5.29992C75.7012 5.40169 75.6204 5.4825 75.5366 5.54237C75.4588 5.60223 75.4019 5.64414 75.366 5.66808C75.5935 5.82373 75.791 6.03026 75.9586 6.28767C76.1322 6.5391 76.219 6.83543 76.219 7.17665C76.219 7.40414 76.1771 7.62563 76.0933 7.84114C76.0095 8.05665 75.8838 8.25121 75.7162 8.42482C75.5545 8.59842 75.348 8.7391 75.0966 8.84686C74.8511 8.94863 74.5668 8.99951 74.2435 8.99951H71.7113ZM79.7626 8.75706C79.7626 8.82291 79.7387 8.87978 79.6908 8.92767C79.6429 8.97557 79.586 8.99951 79.5202 8.99951H79.152C79.0861 8.99951 79.0293 8.97557 78.9814 8.92767C78.9335 8.87978 78.9096 8.82291 78.9096 8.75706V6.65584L76.7634 3.03706C76.7335 2.98318 76.7185 2.94128 76.7185 2.91135C76.7185 2.85747 76.7365 2.81257 76.7724 2.77665C76.8143 2.73475 76.8622 2.7138 76.9161 2.7138H77.3022C77.4219 2.7138 77.5057 2.73774 77.5536 2.78563C77.6075 2.83352 77.6494 2.88441 77.6793 2.93829L79.3316 5.7938L80.9928 2.93829C81.0227 2.88441 81.0617 2.83352 81.1096 2.78563C81.1634 2.73774 81.2502 2.7138 81.37 2.7138H81.7561C81.81 2.7138 81.8549 2.73475 81.8908 2.77665C81.9327 2.81257 81.9536 2.85747 81.9536 2.91135C81.9536 2.94128 81.9387 2.98318 81.9087 3.03706L79.7626 6.65584V8.75706Z" fill="white"/>
<path fill-rule="evenodd" clip-rule="evenodd" d="M17.2986 27.0912H20.0992V23.6124H21.5749L23.346 27.0912H26.2904L24.1524 23.0647L24.3467 22.9491C24.5043 22.8544 24.6495 22.739 24.7787 22.6058C24.9684 22.4189 25.1418 22.2149 25.297 21.9964C25.4917 21.712 25.6412 21.3968 25.7398 21.0631C25.8647 20.6634 25.9266 20.2454 25.9234 19.8251C25.9466 18.8094 25.5617 17.8296 24.8615 17.1216C24.1536 16.3939 23.2549 16.0301 22.1654 16.0301H17.2986V27.0912ZM23.1232 19.8214C23.1308 20.1184 23.0185 20.4051 22.8136 20.6121C22.5996 20.8261 22.3111 20.9403 22.0145 20.9284H20.0992V18.7227H22.0145C22.3104 18.7107 22.5985 18.8233 22.8136 19.0351C23.0187 19.2401 23.1311 19.5256 23.1232 19.8214ZM29.7538 23.2192C29.7434 22.7853 29.8943 22.364 30.175 22.043C30.4155 21.7378 30.7748 21.5609 31.1541 21.5609C31.5334 21.5609 31.8927 21.7378 32.1333 22.043C32.4139 22.364 32.5648 22.7853 32.5544 23.2192C32.5648 23.6531 32.4139 24.0744 32.1333 24.3955C31.8927 24.7006 31.5334 24.8775 31.1541 24.8775C30.7748 24.8775 30.4155 24.7006 30.175 24.3955C29.8943 24.0744 29.7434 23.6531 29.7538 23.2192ZM35.1325 23.2191C35.1325 22.1443 34.7425 21.2045 33.9626 20.3998C32.4089 18.7903 29.8972 18.7903 28.3435 20.3998C27.5612 21.2046 27.17 22.1443 27.1701 23.2191C27.1701 24.2938 27.5613 25.2336 28.3435 26.0384C29.8972 27.6479 32.4089 27.6479 33.9626 26.0384C34.7429 25.2336 35.133 24.2938 35.133 23.2191H35.1325ZM36.1617 23.2188C36.1617 24.2937 36.5529 25.2334 37.3352 26.0381C38.0727 26.8238 39.0876 27.2602 40.143 27.2456C40.5212 27.2465 40.8974 27.188 41.2588 27.0721C41.5623 26.9813 41.8547 26.8545 42.1303 26.6941C42.3507 26.5583 42.558 26.4008 42.7496 26.2239C42.882 26.109 43.0049 25.9825 43.1167 25.8459C43.1695 25.7712 43.2103 25.7134 43.239 25.6724L41.77 24.0133L41.6188 24.2138C41.4731 24.3975 41.2931 24.5484 41.0896 24.6574C40.8478 24.8025 40.5733 24.8783 40.2942 24.8772C39.8779 24.8882 39.4766 24.7159 39.1888 24.4028C38.8936 24.0866 38.7339 23.6595 38.746 23.2188C38.7339 22.7782 38.8936 22.3511 39.1888 22.0349C39.4765 21.7218 39.8778 21.5496 40.2939 21.5605C40.5808 21.5615 40.8616 21.6469 41.1038 21.8068C41.2864 21.9113 41.4537 22.0425 41.6006 22.1963C41.6608 22.2716 41.7173 22.3501 41.7698 22.4314L43.2384 20.7731L43.1233 20.6111C43.0124 20.4616 42.8843 20.3269 42.7417 20.21C42.5475 20.0433 42.3431 19.8899 42.1297 19.751C41.8553 19.5793 41.5599 19.4469 41.2515 19.3575C39.8612 18.9346 38.3598 19.3337 37.3349 20.3988C36.5527 21.2041 36.1616 22.1441 36.1617 23.2188ZM49.4302 22.6713L52.0796 19.3468H49.2067L47.0688 22.0388V16.0301H44.5635V27.0912H47.0688V25.1165L47.7312 24.3298L49.4302 27.0912H52.1588L49.4302 22.6713ZM54.0678 15.7139L52.448 19.586L53.9958 20.5348L56.134 16.979L54.0678 15.7139ZM59.7407 19.3468H57.2356V27.0911H59.7407V23.219C59.7407 22.7562 59.8511 22.3911 60.0719 22.1236C60.2811 21.8617 60.5942 21.7139 60.9214 21.7226C61.205 21.714 61.4774 21.8386 61.663 22.062C61.8549 22.2882 61.9509 22.5967 61.9509 22.9875V27.0911H64.4563V22.5098C64.4563 21.5225 64.2091 20.7228 63.7148 20.1109C63.2503 19.5133 62.5454 19.1741 61.8069 19.1928C61.4112 19.1936 61.0222 19.2998 60.6771 19.5014C60.3172 19.7071 60.0856 19.8704 59.9825 19.9912C59.8793 20.1121 59.7987 20.2135 59.7407 20.2955V19.3468ZM67.3284 15.7139L65.7086 19.586L67.2564 20.5348L69.3946 16.979L67.3284 15.7139ZM75.8023 27.0912C76.9014 27.0912 77.8025 26.7672 78.5057 26.1193C79.2088 25.4713 79.5603 24.7154 79.5601 23.8515C79.5636 23.4989 79.4961 23.1495 79.3621 22.8256C79.256 22.5544 79.1062 22.304 78.9194 22.0851C78.7517 21.9012 78.5631 21.7393 78.3578 21.603C78.216 21.5031 78.0681 21.413 77.915 21.3331C77.8311 21.2945 77.7651 21.2649 77.7171 21.2444L77.8539 21.1672C77.9756 21.0963 78.0881 21.0094 78.1887 20.9088C78.3267 20.7759 78.4555 20.6328 78.5739 20.4807C78.7205 20.2827 78.8326 20.0595 78.905 19.8211C78.9969 19.5419 79.0431 19.2485 79.0418 18.9533C79.0418 18.1665 78.7178 17.4826 78.0699 16.9015C77.4219 16.3205 76.5676 16.0299 75.5069 16.0299H70.8636V27.091H75.8023V27.0912ZM73.6642 24.7232V22.5099H75.5795C75.876 22.498 76.1645 22.6122 76.3785 22.8262C76.7915 23.2656 76.7915 23.9679 76.3785 24.4074C76.1645 24.6214 75.876 24.7356 75.5795 24.7237H73.6642V24.7232ZM75.2125 18.4059C75.4691 18.3921 75.7203 18.4851 75.9109 18.6643C76.0868 18.8446 76.181 19.0941 76.1701 19.3508C76.181 19.6075 76.0868 19.8571 75.9109 20.0374C75.7203 20.2166 75.4691 20.3095 75.2125 20.2958H73.6642V18.4059H75.2125ZM83.5429 16.0301H81.0376V27.0912H83.5429V16.0301ZM87.5952 23.219C87.5848 22.7851 87.7357 22.3637 88.0165 22.0426C88.257 21.7374 88.6163 21.5605 88.9956 21.5605C89.3749 21.5605 89.7342 21.7374 89.9748 22.0426C90.2555 22.3637 90.4063 22.785 90.3959 23.2189C90.4063 23.6528 90.2555 24.0742 89.9748 24.3953C89.7342 24.7005 89.3749 24.8774 88.9956 24.8774C88.6163 24.8774 88.257 24.7005 88.0165 24.3953C87.7357 24.0742 87.5848 23.6528 87.5952 23.2189V23.219ZM92.9742 23.2191C92.9742 22.1443 92.5842 21.2045 91.8042 20.3998C90.2506 18.7903 87.7389 18.7903 86.1852 20.3998C85.4028 21.2046 85.0116 22.1443 85.0116 23.2191C85.0116 24.2938 85.4028 25.2336 86.1852 26.0384C87.7389 27.6479 90.2506 27.6479 91.8042 26.0384C92.5841 25.2335 92.9741 24.2937 92.9742 23.219V23.2191ZM94.0033 23.219C94.0033 24.2938 94.3945 25.2336 95.1768 26.0383C95.9143 26.8238 96.9291 27.2603 97.9845 27.2457C98.3627 27.2465 98.7389 27.188 99.1004 27.0721C99.4038 26.9813 99.6963 26.8545 99.9719 26.6941C100.192 26.5583 100.4 26.4008 100.591 26.2239C100.724 26.109 100.846 25.9825 100.958 25.8459C101.011 25.7713 101.052 25.7134 101.081 25.6724L99.6116 24.0133L99.4604 24.2139C99.3147 24.3975 99.1346 24.5484 98.9312 24.6575C98.6893 24.8025 98.4148 24.8784 98.1356 24.8772C97.7195 24.8882 97.3183 24.7159 97.0306 24.4029C96.7354 24.0866 96.5757 23.6596 96.5878 23.2189C96.5757 22.7782 96.7354 22.3511 97.0306 22.0349C97.3183 21.7218 97.7195 21.5496 98.1356 21.5605C98.4225 21.5615 98.7034 21.6469 98.9456 21.8068C99.1282 21.9113 99.2955 22.0425 99.4423 22.1963C99.5026 22.2716 99.5591 22.3501 99.6116 22.4315L101.08 20.7731L100.965 20.6111C100.854 20.4616 100.726 20.3269 100.583 20.21C100.389 20.0433 100.185 19.8899 99.9715 19.751C99.6971 19.5793 99.4016 19.4469 99.0931 19.3576C97.7028 18.9345 96.2015 19.3337 95.1766 20.3988C94.3943 21.2041 94.0032 22.1441 94.0033 23.2189V23.219ZM107.272 22.6714L109.921 19.3469H107.049L104.91 22.0388V16.0301H102.405V27.0912H104.91V25.1165L105.573 24.3298L107.272 27.0912H110L107.272 22.6714Z" fill="white"/>
<path fill-rule="evenodd" clip-rule="evenodd" d="M0 15.7146H10.6452V26.8034H0V15.7146Z" fill="#FF0000"/>
<path fill-rule="evenodd" clip-rule="evenodd" d="M6.771 16.6008L2.21841 21.5147H5.05778L3.32649 25.9154L8.42812 19.9782H5.58875L6.771 16.6008Z" fill="white"/>
</svg>
