<svg width="24" height="24" viewBox="0 0 24 24" fill="none" xmlns="http://www.w3.org/2000/svg">
<path d="M19 2.00006H13C12.7348 2.00006 12.4804 2.10542 12.2929 2.29295C12.1054 2.48049 12 2.73484 12 3.00006C12 3.26528 12.1054 3.51963 12.2929 3.70717C12.4804 3.8947 12.7348 4.00006 13 4.00006H19C19.2652 4.00006 19.5196 4.10542 19.7071 4.29295C19.8946 4.48049 20 4.73484 20 5.00006V19.0001C20 19.2653 19.8946 19.5196 19.7071 19.7072C19.5196 19.8947 19.2652 20.0001 19 20.0001H13C12.7348 20.0001 12.4804 20.1054 12.2929 20.293C12.1054 20.4805 12 20.7348 12 21.0001C12 21.2653 12.1054 21.5196 12.2929 21.7072C12.4804 21.8947 12.7348 22.0001 13 22.0001H19C19.7956 22.0001 20.5587 21.684 21.1213 21.1214C21.6839 20.5588 22 19.7957 22 19.0001V5.00006C22 4.20441 21.6839 3.44135 21.1213 2.87874C20.5587 2.31613 19.7956 2.00006 19 2.00006Z" fill="url(#paint0_linear_64:1063)"/>
<path d="M7.70679 15.2931C7.8023 15.3853 7.87848 15.4957 7.93089 15.6177C7.9833 15.7397 8.01088 15.8709 8.01204 16.0037C8.01319 16.1364 7.98789 16.2681 7.93761 16.391C7.88733 16.5139 7.81308 16.6256 7.71918 16.7195C7.62529 16.8134 7.51364 16.8876 7.39074 16.9379C7.26784 16.9882 7.13617 17.0135 7.00339 17.0123C6.87061 17.0112 6.73939 16.9836 6.61738 16.9312C6.49538 16.8788 6.38503 16.8026 6.29279 16.7071L2.29279 12.7071C2.10532 12.5195 2 12.2652 2 12.0001C2 11.7349 2.10532 11.4806 2.29279 11.2931L6.29279 7.29308C6.38503 7.19757 6.49538 7.12139 6.61738 7.06898C6.73939 7.01657 6.87061 6.98898 7.00339 6.98783C7.13617 6.98668 7.26784 7.01198 7.39074 7.06226C7.51364 7.11254 7.62529 7.18679 7.71918 7.28069C7.81308 7.37458 7.88733 7.48623 7.93761 7.60913C7.98789 7.73202 8.01319 7.8637 8.01204 7.99648C8.01088 8.12926 7.9833 8.26048 7.93089 8.38248C7.87848 8.50449 7.8023 8.61483 7.70679 8.70708L5.41379 11.0001H16.9998C17.265 11.0001 17.5194 11.1054 17.7069 11.293C17.8944 11.4805 17.9998 11.7349 17.9998 12.0001C17.9998 12.2653 17.8944 12.5196 17.7069 12.7072C17.5194 12.8947 17.265 13.0001 16.9998 13.0001H5.41379L7.70679 15.2931Z" fill="url(#paint1_linear_64:1063)"/>
<defs>
<linearGradient id="paint0_linear_64:1063" x1="11.4192" y1="11.3557" x2="20.2817" y2="11.3557" gradientUnits="userSpaceOnUse">
<stop stop-color="#C99D45"/>
<stop offset="0.1078" stop-color="#CDA14B"/>
<stop offset="0.2501" stop-color="#D8AD5B"/>
<stop offset="0.4111" stop-color="#EBBF77"/>
<stop offset="0.5" stop-color="#F7CC89"/>
<stop offset="0.5834" stop-color="#F3C784"/>
<stop offset="0.6862" stop-color="#E8BA75"/>
<stop offset="0.7992" stop-color="#D6A35C"/>
<stop offset="0.9186" stop-color="#BC8439"/>
<stop offset="1" stop-color="#A86B1D"/>
</linearGradient>
<linearGradient id="paint1_linear_64:1063" x1="1.07077" y1="11.6771" x2="15.2505" y2="11.6771" gradientUnits="userSpaceOnUse">
<stop stop-color="#C99D45"/>
<stop offset="0.1078" stop-color="#CDA14B"/>
<stop offset="0.2501" stop-color="#D8AD5B"/>
<stop offset="0.4111" stop-color="#EBBF77"/>
<stop offset="0.5" stop-color="#F7CC89"/>
<stop offset="0.5834" stop-color="#F3C784"/>
<stop offset="0.6862" stop-color="#E8BA75"/>
<stop offset="0.7992" stop-color="#D6A35C"/>
<stop offset="0.9186" stop-color="#BC8439"/>
<stop offset="1" stop-color="#A86B1D"/>
</linearGradient>
</defs>
</svg>
