<svg width="24" height="24" viewBox="0 0 24 24" fill="none" xmlns="http://www.w3.org/2000/svg">
<g clip-path="url(#clip0_8:1007)">
<path d="M22.8129 0L13.4373 7.49999L15.1807 3.08L22.8129 0Z" fill="#E17726" stroke="#E17726" stroke-width="0.25" stroke-linecap="round" stroke-linejoin="round"/>
<path d="M1.18677 0L10.4789 7.56999L8.81895 3.08L1.18677 0Z" fill="#E27625" stroke="#E27625" stroke-width="0.25" stroke-linecap="round" stroke-linejoin="round"/>
<path d="M19.4374 17.3899L16.9429 21.5099L22.2844 23.0999L23.8146 17.48L19.4374 17.3899Z" fill="#E27625" stroke="#E27625" stroke-width="0.25" stroke-linecap="round" stroke-linejoin="round"/>
<path d="M0.19458 17.48L1.71544 23.0999L7.04778 21.5099L4.56243 17.3899L0.19458 17.48Z" fill="#E27625" stroke="#E27625" stroke-width="0.25" stroke-linecap="round" stroke-linejoin="round"/>
<path d="M6.76036 10.43L5.27661 12.85L10.5625 13.11L10.3864 6.96002L6.76036 10.43Z" fill="#E27625" stroke="#E27625" stroke-width="0.25" stroke-linecap="round" stroke-linejoin="round"/>
<path d="M17.2389 10.4301L13.5573 6.89008L13.4368 13.1101L18.7227 12.8501L17.2389 10.4301Z" fill="#E27625" stroke="#E27625" stroke-width="0.25" stroke-linecap="round" stroke-linejoin="round"/>
<path d="M7.04785 21.51L10.2472 19.84L7.493 17.52L7.04785 21.51Z" fill="#E27625" stroke="#E27625" stroke-width="0.25" stroke-linecap="round" stroke-linejoin="round"/>
<path d="M13.7529 19.84L16.943 21.51L16.5071 17.52L13.7529 19.84Z" fill="#E27625" stroke="#E27625" stroke-width="0.25" stroke-linecap="round" stroke-linejoin="round"/>
<path d="M16.943 21.5101L13.7529 19.8401L14.0126 22.0801L13.9847 23.0301L16.943 21.5101Z" fill="#D5BFB2" stroke="#D5BFB2" stroke-width="0.25" stroke-linecap="round" stroke-linejoin="round"/>
<path d="M7.04785 21.5101L10.0154 23.0301L9.99686 22.0801L10.2472 19.8401L7.04785 21.5101Z" fill="#D5BFB2" stroke="#D5BFB2" stroke-width="0.25" stroke-linecap="round" stroke-linejoin="round"/>
<path d="M10.0712 16.0399L7.41895 15.2L9.2922 14.27L10.0712 16.0399Z" fill="#233447" stroke="#233447" stroke-width="0.25" stroke-linecap="round" stroke-linejoin="round"/>
<path d="M13.929 16.0399L14.708 14.27L16.5905 15.2L13.929 16.0399Z" fill="#233447" stroke="#233447" stroke-width="0.25" stroke-linecap="round" stroke-linejoin="round"/>
<path d="M7.04804 21.5099L7.51175 17.3899L4.56274 17.48L7.04804 21.5099Z" fill="#CC6228" stroke="#CC6228" stroke-width="0.25" stroke-linecap="round" stroke-linejoin="round"/>
<path d="M16.4883 17.3899L16.9427 21.5099L19.4373 17.48L16.4883 17.3899Z" fill="#CC6228" stroke="#CC6228" stroke-width="0.25" stroke-linecap="round" stroke-linejoin="round"/>
<path d="M18.7227 12.8499L13.4368 13.1099L13.9282 16.0399L14.7073 14.2699L16.5898 15.1999L18.7227 12.8499Z" fill="#CC6228" stroke="#CC6228" stroke-width="0.25" stroke-linecap="round" stroke-linejoin="round"/>
<path d="M7.4188 15.1999L9.29206 14.2699L10.0711 16.0399L10.5625 13.1099L5.27661 12.8499L7.4188 15.1999Z" fill="#CC6228" stroke="#CC6228" stroke-width="0.25" stroke-linecap="round" stroke-linejoin="round"/>
<path d="M5.2771 12.8499L7.4935 17.5199L7.41926 15.1999L5.2771 12.8499Z" fill="#E27525" stroke="#E27525" stroke-width="0.25" stroke-linecap="round" stroke-linejoin="round"/>
<path d="M16.5905 15.1999L16.5071 17.5199L18.7235 12.8499L16.5905 15.1999Z" fill="#E27525" stroke="#E27525" stroke-width="0.25" stroke-linecap="round" stroke-linejoin="round"/>
<path d="M10.5626 13.11L10.071 16.04L10.6924 19.5L10.8315 14.94L10.5626 13.11Z" fill="#E27525" stroke="#E27525" stroke-width="0.25" stroke-linecap="round" stroke-linejoin="round"/>
<path d="M13.4377 13.11L13.178 14.9301L13.3078 19.5L13.9291 16.04L13.4377 13.11Z" fill="#E27525" stroke="#E27525" stroke-width="0.25" stroke-linecap="round" stroke-linejoin="round"/>
<path d="M13.9287 16.0401L13.3074 19.5L13.7525 19.8401L16.5068 17.5201L16.5902 15.2001L13.9287 16.0401Z" fill="#F5841F" stroke="#F5841F" stroke-width="0.25" stroke-linecap="round" stroke-linejoin="round"/>
<path d="M7.41895 15.2001L7.49318 17.5201L10.2474 19.8401L10.6925 19.5L10.0712 16.0401L7.41895 15.2001Z" fill="#F5841F" stroke="#F5841F" stroke-width="0.25" stroke-linecap="round" stroke-linejoin="round"/>
<path d="M13.9845 23.0301L14.0123 22.0801L13.7712 21.8601H10.2287L9.99686 22.0801L10.0154 23.0301L7.04785 21.5101L8.08649 22.4301L10.1916 24.0001H13.799L15.9134 22.4301L16.9427 21.5101L13.9845 23.0301Z" fill="#C0AC9D" stroke="#C0AC9D" stroke-width="0.25" stroke-linecap="round" stroke-linejoin="round"/>
<path d="M13.7529 19.84L13.3077 19.5H10.6926L10.2475 19.84L9.99707 22.08L10.2289 21.86H13.7714L14.0126 22.08L13.7529 19.84Z" fill="#161616" stroke="#161616" stroke-width="0.25" stroke-linecap="round" stroke-linejoin="round"/>
<path d="M23.2119 7.98997L24.0002 3.85L22.8132 0L13.7529 7.25002L17.2397 10.43L22.164 11.98L23.2491 10.61L22.7761 10.24L23.5272 9.50003L22.9523 9.02001L23.7035 8.39999L23.2119 7.98997Z" fill="#763E1A" stroke="#763E1A" stroke-width="0.25" stroke-linecap="round" stroke-linejoin="round"/>
<path d="M0 3.85L0.797528 7.98997L0.287484 8.39999L1.04791 9.02001L0.472953 9.50003L1.22411 10.24L0.751157 10.61L1.83617 11.98L6.76047 10.43L10.2473 7.25002L1.18702 0L0 3.85Z" fill="#763E1A" stroke="#763E1A" stroke-width="0.25" stroke-linecap="round" stroke-linejoin="round"/>
<path d="M22.164 11.9799L17.2397 10.4299L18.7235 12.8499L16.5071 17.5199L19.4375 17.4799H23.8146L22.164 11.9799Z" fill="#F5841F" stroke="#F5841F" stroke-width="0.25" stroke-linecap="round" stroke-linejoin="round"/>
<path d="M6.76024 10.4299L1.836 11.9799L0.19458 17.4799H4.56243L7.49285 17.5199L5.2765 12.8499L6.76024 10.4299Z" fill="#F5841F" stroke="#F5841F" stroke-width="0.25" stroke-linecap="round" stroke-linejoin="round"/>
<path d="M13.4371 13.1101L13.7524 7.25L15.1805 3.08002H8.81885L10.247 7.25L10.5623 13.1101L10.6828 14.9501L10.6921 19.5001H13.3072L13.3165 14.9501L13.4371 13.1101Z" fill="#F5841F" stroke="#F5841F" stroke-width="0.25" stroke-linecap="round" stroke-linejoin="round"/>
</g>
<defs>
<clipPath id="clip0_8:1007">
<rect width="24" height="24" fill="white"/>
</clipPath>
</defs>
</svg>
