<svg width="24" height="15" viewBox="0 0 24 15" fill="none" xmlns="http://www.w3.org/2000/svg">
<path d="M4.71582 2.7585C8.4724 -0.919501 14.563 -0.919501 18.3196 2.7585L18.7717 3.20116C18.9595 3.38506 18.9595 3.68322 18.7717 3.86712L17.2251 5.38135C17.1312 5.4733 16.9789 5.4733 16.885 5.38135L16.2629 4.7722C13.6422 2.20634 9.39323 2.20634 6.77254 4.7722L6.10627 5.42455C6.01235 5.5165 5.86009 5.5165 5.76617 5.42455L4.21959 3.91032C4.03176 3.72642 4.03176 3.42826 4.21959 3.24435L4.71582 2.7585ZM21.5181 5.89009L22.8945 7.23776C23.0824 7.42166 23.0824 7.71982 22.8945 7.90372L16.688 13.9805C16.5002 14.1644 16.1956 14.1644 16.0078 13.9805C16.0078 13.9805 16.0078 13.9805 16.0078 13.9805L11.6028 9.66765C11.5558 9.62167 11.4797 9.62167 11.4327 9.66765C11.4327 9.66765 11.4327 9.66765 11.4327 9.66765L7.02778 13.9805C6.83995 14.1644 6.53542 14.1644 6.34759 13.9805C6.34759 13.9805 6.34759 13.9805 6.34759 13.9805L0.140872 7.90364C-0.0469572 7.71974 -0.0469572 7.42158 0.140872 7.23768L1.51733 5.89001C1.70516 5.70611 2.00969 5.70611 2.19752 5.89001L6.60261 10.203C6.64957 10.2489 6.7257 10.2489 6.77266 10.203C6.77266 10.203 6.77266 10.203 6.77266 10.203L11.1775 5.89001C11.3654 5.70611 11.6699 5.7061 11.8577 5.89C11.8577 5.89 11.8577 5.89 11.8577 5.89L16.2628 10.203C16.3098 10.2489 16.3859 10.2489 16.4329 10.203L20.8379 5.89009C21.0257 5.70619 21.3302 5.70619 21.5181 5.89009Z" fill="#3B99FC"/>
</svg>
