<svg width="136" height="136" viewBox="0 0 136 136" fill="none" xmlns="http://www.w3.org/2000/svg">
<circle cx="68" cy="68" r="66.5884" fill="url(#paint0_linear_14:3963)" stroke="url(#paint1_linear_14:3963)" stroke-width="2.82327"/>
<g clip-path="url(#clip0_14:3963)">
<path d="M108.639 65.4599C109.391 65.4599 110 64.8506 110 64.0989V61.9897C110 59.5793 108.282 57.5635 106.008 57.0995V48.1987C106.008 43.4461 102.141 39.5793 97.3889 39.5793H82.9037C82.2109 31.459 75.3814 25.0625 67.0849 25.0625C64.6823 25.0625 62.373 25.5861 60.2216 26.6186C59.5436 26.9443 59.2586 27.7571 59.5836 28.4344C59.9086 29.1125 60.7214 29.3975 61.3994 29.0725C63.1802 28.2183 65.0936 27.7845 67.0849 27.7845C73.88 27.7845 79.4875 32.9624 80.1705 39.5793H65.2704C64.0197 39.5793 63.0026 38.5615 63.0026 37.3107C63.0026 36.0599 64.0197 35.0429 65.2704 35.0429H68.9C70.1508 35.0429 71.1678 36.0606 71.1678 37.3107C71.1678 38.0625 71.7771 38.6717 72.5288 38.6717C73.2806 38.6717 73.8898 38.0625 73.8898 37.3107C73.8898 34.5593 71.6508 32.3209 68.9 32.3209H68.4459V31.1417C68.4459 30.39 67.8366 29.7807 67.0849 29.7807C66.3331 29.7807 65.7239 30.39 65.7239 31.1417V32.3209H65.2704C62.519 32.3209 60.2806 34.56 60.2806 37.3107C60.2806 38.1277 60.4785 38.8984 60.8281 39.5793H54.0028C54.2702 37.0173 55.2845 34.5705 56.9304 32.5757C57.4084 31.9959 57.3263 31.1382 56.7465 30.6595C56.1667 30.1815 55.309 30.2636 54.8303 30.8434C52.7836 33.3253 51.5426 36.3856 51.2661 39.5793H33.8778C33.126 39.5793 32.5168 40.1885 32.5168 40.9403V55.0036H30.0026C29.3821 52.3048 26.9626 50.2854 24.0785 50.2854C20.7269 50.2854 18 53.0123 18 56.3639C18 59.7162 20.7269 62.4431 24.0785 62.4431C26.9626 62.4431 29.3821 60.4237 30.0026 57.7249H32.5168V74.3937C29.818 75.0135 27.7986 77.433 27.7986 80.3171C27.7986 83.2012 29.818 85.6207 32.5168 86.2405V95.7408C32.5168 96.4925 33.126 97.1017 33.8778 97.1017H97.3889C102.141 97.1017 106.008 93.235 106.008 88.4824V79.5815C108.282 79.1176 110 77.1017 110 74.692V70.4273C110 69.6755 109.391 69.0663 108.639 69.0663C107.887 69.0663 107.278 69.6755 107.278 70.4273V74.692C107.278 75.9428 106.26 76.9599 105.01 76.9599H90.1305C86.8779 76.9599 84.2331 74.3144 84.2331 71.0625V65.6185C84.2331 62.3666 86.8786 59.7211 90.1305 59.7211H105.01C106.261 59.7211 107.278 60.7389 107.278 61.9897V64.0989C107.278 64.8506 107.887 65.4599 108.639 65.4599ZM24.0785 59.7211C22.2276 59.7211 20.722 58.2155 20.722 56.3639C20.722 54.513 22.2276 53.0074 24.0785 53.0074C25.9301 53.0074 27.4357 54.513 27.4357 56.3639C27.4357 58.2155 25.9301 59.7211 24.0785 59.7211ZM65.2704 42.3013H97.3882C100.64 42.3013 103.286 44.9467 103.286 48.1987V56.9991H98.7492V50.0131C98.7492 48.2618 97.325 46.8377 95.5738 46.8377H35.2388V42.3006H65.2704V42.3013ZM50.8702 66.9795C50.2504 64.2814 47.8309 62.262 44.9468 62.262C41.5945 62.262 38.8676 64.9889 38.8676 68.3405C38.8676 71.6921 41.5945 74.4197 44.9468 74.4197C47.8309 74.4197 50.2504 72.4003 50.8702 69.7015H63.2377L55.3855 78.9561H39.8011C39.2817 76.6953 37.4996 74.9131 35.2388 74.3937V57.7249H48.49L56.3422 66.9795H50.8702ZM48.304 68.3405C48.304 70.1914 46.7977 71.697 44.9468 71.697C43.0959 71.697 41.5896 70.1914 41.5896 68.3405C41.5896 66.4896 43.0959 64.9833 44.9468 64.9833C46.7977 64.9833 48.304 66.4896 48.304 68.3405ZM30.5206 80.3171C30.5206 78.4655 32.0269 76.9599 33.8778 76.9599C35.7287 76.9599 37.2343 78.4655 37.2343 80.3171C37.2343 82.168 35.7287 83.6736 33.8778 83.6736C32.0269 83.6736 30.5206 82.168 30.5206 80.3171ZM81.5111 65.6185V71.0625C81.5111 75.8151 85.3779 79.6819 90.1305 79.6819H96.0279V86.6679C96.0279 86.9185 95.8243 87.1214 95.5738 87.1214H58.1138C57.3621 87.1214 56.7528 87.7313 56.7528 88.4824C56.7528 89.2341 57.3621 89.8434 58.1138 89.8434H95.5738C97.325 89.8434 98.7499 88.4192 98.7499 86.6679V79.6819H103.286V88.4824C103.286 91.7343 100.641 94.3798 97.3889 94.3798H35.2388V89.8434H51.7209C52.4726 89.8434 53.0819 89.2341 53.0819 88.4824C53.0819 87.7306 52.4726 87.1214 51.7209 87.1214H35.2388V86.2398C37.4996 85.7204 39.2817 83.9382 39.8011 81.6774H56.0158C56.4152 81.6774 56.795 81.5019 57.0533 81.1973L66.8076 69.7015H73.6175C74.3692 69.7015 74.9785 69.0916 74.9785 68.3405C74.9785 67.5888 74.3692 66.9795 73.6175 66.9795H59.9121L50.1577 55.4837C49.8994 55.1784 49.5197 55.0029 49.1203 55.0029H35.2388V49.559H95.5738C95.8243 49.559 96.0279 49.7625 96.0279 50.0131V56.9991H90.1305C85.3772 56.9991 81.5111 60.8659 81.5111 65.6185Z" fill="url(#paint2_linear_14:3963)"/>
<path d="M93.0335 63.35C90.2821 63.35 88.0437 65.5891 88.0437 68.3405C88.0437 71.092 90.2821 73.3304 93.0335 73.3304C95.785 73.3304 98.0234 71.092 98.0234 68.3405C98.0234 65.5891 95.785 63.35 93.0335 63.35ZM93.0335 70.6091C91.7827 70.6091 90.765 69.5913 90.765 68.3405C90.765 67.0897 91.7827 66.0727 93.0335 66.0727C94.2843 66.0727 95.3014 67.0897 95.3014 68.3405C95.3014 69.5913 94.2843 70.6091 93.0335 70.6091Z" fill="url(#paint3_linear_14:3963)"/>
</g>
<defs>
<linearGradient id="paint0_linear_14:3963" x1="68" y1="0" x2="68" y2="124.913" gradientUnits="userSpaceOnUse">
<stop stop-color="#061912"/>
<stop offset="1" stop-color="#154030"/>
</linearGradient>
<linearGradient id="paint1_linear_14:3963" x1="-0.093172" y1="68.018" x2="136.089" y2="68.018" gradientUnits="userSpaceOnUse">
<stop stop-color="#C99D45"/>
<stop offset="0.1078" stop-color="#CDA14B"/>
<stop offset="0.2501" stop-color="#D8AD5B"/>
<stop offset="0.4111" stop-color="#EBBF77"/>
<stop offset="0.5" stop-color="#F7CC89"/>
<stop offset="0.5834" stop-color="#F3C784"/>
<stop offset="0.6862" stop-color="#E8BA75"/>
<stop offset="0.7992" stop-color="#D6A35C"/>
<stop offset="0.9186" stop-color="#BC8439"/>
<stop offset="1" stop-color="#A86B1D"/>
</linearGradient>
<linearGradient id="paint2_linear_14:3963" x1="17.937" y1="61.0917" x2="110.06" y2="61.0917" gradientUnits="userSpaceOnUse">
<stop stop-color="#C99D45"/>
<stop offset="0.1078" stop-color="#CDA14B"/>
<stop offset="0.2501" stop-color="#D8AD5B"/>
<stop offset="0.4111" stop-color="#EBBF77"/>
<stop offset="0.5" stop-color="#F7CC89"/>
<stop offset="0.5834" stop-color="#F3C784"/>
<stop offset="0.6862" stop-color="#E8BA75"/>
<stop offset="0.7992" stop-color="#D6A35C"/>
<stop offset="0.9186" stop-color="#BC8439"/>
<stop offset="1" stop-color="#A86B1D"/>
</linearGradient>
<linearGradient id="paint3_linear_14:3963" x1="88.0369" y1="68.3415" x2="98.0299" y2="68.3415" gradientUnits="userSpaceOnUse">
<stop stop-color="#C99D45"/>
<stop offset="0.1078" stop-color="#CDA14B"/>
<stop offset="0.2501" stop-color="#D8AD5B"/>
<stop offset="0.4111" stop-color="#EBBF77"/>
<stop offset="0.5" stop-color="#F7CC89"/>
<stop offset="0.5834" stop-color="#F3C784"/>
<stop offset="0.6862" stop-color="#E8BA75"/>
<stop offset="0.7992" stop-color="#D6A35C"/>
<stop offset="0.9186" stop-color="#BC8439"/>
<stop offset="1" stop-color="#A86B1D"/>
</linearGradient>
<clipPath id="clip0_14:3963">
<rect width="92" height="92" fill="white" transform="translate(18 15)"/>
</clipPath>
</defs>
</svg>
